<svg xmlns="http://www.w3.org/2000/svg" width="45.481" height="50" viewBox="0 0 45.481 50">
  <g id="support" transform="translate(-23.046)">
    <path id="Path_1462" data-name="Path 1462" d="M63.909,36.28l-.056-.066a19.2,19.2,0,0,0-10.637-6.342,13.237,13.237,0,0,0,4.777-6.343h3.349a3.407,3.407,0,0,0,3.4-3.4V19.118a19.118,19.118,0,0,0-38.235,0v1.008a3.407,3.407,0,0,0,3.4,3.4h3.228a13.237,13.237,0,0,0,4.885,6.419A19.175,19.175,0,0,0,27.72,36.214l-.056.067a18.586,18.586,0,0,0-4.618,12.249V50H68.527V48.529A18.586,18.586,0,0,0,63.909,36.28Zm-18.341-6.9a10.246,10.246,0,0,1-9.248-5.855h7.348V20.588H35.435a10.233,10.233,0,1,1,10.132,8.8ZM61.8,20.126a.463.463,0,0,1-.462.462H58.663a13.146,13.146,0,0,0-.008-2.941h3.081c.044.485.068.975.068,1.471ZM45.628,2.941A16.206,16.206,0,0,1,61.193,14.706H57.969a13.175,13.175,0,0,0-24.8,0h-3.1A16.206,16.206,0,0,1,45.628,2.941ZM29.914,20.588a.463.463,0,0,1-.462-.462V19.118c0-.5.024-.986.068-1.471h2.96a13.148,13.148,0,0,0-.008,2.941ZM26.055,47.059a15.873,15.873,0,0,1,3.856-8.88l.056-.067a16.532,16.532,0,0,1,12.705-5.759H48.9a16.532,16.532,0,0,1,12.706,5.759l.056.066a15.873,15.873,0,0,1,3.856,8.88Z" fill="#244d75"/>
  </g>
</svg>
