<svg xmlns="http://www.w3.org/2000/svg" width="32.227" height="50" viewBox="0 0 32.227 50">
  <g id="programmer" transform="translate(-91)">
    <path id="Path_191" data-name="Path 191" d="M138.975,27.3a11.431,11.431,0,0,0,5.041-6.822,4.419,4.419,0,0,0,3.323-4.284V13.249A13.224,13.224,0,0,0,134.169,0H125.39a1.468,1.468,0,0,0-1.463,1.472,10.334,10.334,0,0,0,.426,2.945A13.172,13.172,0,0,0,121,13.249v2.944a4.419,4.419,0,0,0,3.323,4.284,11.431,11.431,0,0,0,5.041,6.822,16.677,16.677,0,0,0,4.424,2.091,1.453,1.453,0,0,0,.762,0A16.676,16.676,0,0,0,138.975,27.3ZM134.169,2.944A10.279,10.279,0,0,1,144.337,12a4.347,4.347,0,0,0-1.389-.227h-1.611a7.363,7.363,0,0,0-.832-2.209,1.462,1.462,0,0,0-1.267-.735h-5.07A7.34,7.34,0,0,1,127,2.944Zm-6.335,6.62A7.333,7.333,0,0,0,127,11.777h-1.61A4.347,4.347,0,0,0,124,12a10.206,10.206,0,0,1,1.764-4.651,10.364,10.364,0,0,0,2.07,2.21Zm6.333,16.862c-1.453-.5-6.556-2.587-7.147-7.467a1.466,1.466,0,0,0-1.453-1.294h-.177a1.472,1.472,0,0,1,0-2.944h2.926a1.468,1.468,0,0,0,1.463-1.472,4.42,4.42,0,0,1,.587-2.208,10.134,10.134,0,0,0,3.8.736h4.14a4.454,4.454,0,0,1,.25,1.472,1.468,1.468,0,0,0,1.463,1.472h2.926a1.472,1.472,0,0,1,0,2.944h-.177a1.466,1.466,0,0,0-1.453,1.294c-.588,4.854-5.707,6.965-7.153,7.467Z" transform="translate(-27.056)" fill="#244d75"/>
    <path id="Path_192" data-name="Path 192" d="M112.973,300H101.254A10.291,10.291,0,0,0,91,310.3v9.029a1.468,1.468,0,0,0,1.465,1.472h29.3a1.469,1.469,0,0,0,1.465-1.472V310.3A10.291,10.291,0,0,0,112.973,300Zm-14.457,8.832h17.2l-1.1,9.029H99.62Zm21.782,9.029h-2.739l1.263-10.321a1.477,1.477,0,0,0-.357-1.155,1.462,1.462,0,0,0-1.1-.5H96.859a1.462,1.462,0,0,0-1.1.5,1.477,1.477,0,0,0-.357,1.155l1.263,10.321H93.93V310.3a7.351,7.351,0,0,1,7.324-7.36h11.719a7.351,7.351,0,0,1,7.324,7.36Z" transform="translate(0 -270.805)" fill="#244d75"/>
    <circle id="Ellipse_8" data-name="Ellipse 8" cx="1.403" cy="1.403" r="1.403" transform="translate(105.652 41.14)" fill="#244d75"/>
  </g>
</svg>
