<svg id="devices" xmlns="http://www.w3.org/2000/svg" width="50" height="50" viewBox="0 0 50 50">
  <g id="Group_325" data-name="Group 325">
    <path id="Path_190" data-name="Path 190" d="M47.07,17.928V4.395A4.4,4.4,0,0,0,42.676,0H4.395A4.4,4.4,0,0,0,0,4.395V30.859a4.4,4.4,0,0,0,4.395,4.395h12.3l-1.52,3.09a7.334,7.334,0,0,0-6.381,7.262,1.465,1.465,0,0,0,1.465,1.465H26.717A4.4,4.4,0,0,0,30.859,50H45.605A4.4,4.4,0,0,0,50,45.605V22.07A4.4,4.4,0,0,0,47.07,17.928ZM2.93,4.395A1.467,1.467,0,0,1,4.395,2.93H42.676a1.467,1.467,0,0,1,1.465,1.465V5.859H2.93ZM26.465,44.141H11.97a4.4,4.4,0,0,1,4.144-2.93H26.465Zm0-5.859h-8l1.489-3.027h6.51Zm0-5.957H4.395A1.467,1.467,0,0,1,2.93,30.859V29.395H26.465Zm0-10.254v4.395H2.93V8.789H44.141v8.887H30.859A4.4,4.4,0,0,0,26.465,22.07ZM47.07,45.605a1.467,1.467,0,0,1-1.465,1.465H30.859a1.467,1.467,0,0,1-1.465-1.465V44.141H47.07Zm0-4.395H29.395V26.465H47.07Zm0-17.676H29.395V22.07a1.467,1.467,0,0,1,1.465-1.465H45.606A1.466,1.466,0,0,1,47.07,22.07Z" fill="#244d75"/>
  </g>
</svg>
