<svg xmlns="http://www.w3.org/2000/svg" xmlns:xlink="http://www.w3.org/1999/xlink" width="444" height="496" viewBox="0 0 444 496">
  <defs>
    <clipPath id="clip-path">
      <rect id="Rectangle_23" data-name="Rectangle 23" width="444" height="496" rx="40" transform="translate(783 838)" fill="#009fe3"/>
    </clipPath>
    <linearGradient id="linear-gradient" x1="0.358" y1="0.221" x2="0.961" y2="1.678" gradientUnits="objectBoundingBox">
      <stop offset="0" stop-color="#0090df"/>
      <stop offset="1" stop-color="#040506"/>
    </linearGradient>
  </defs>
  <g id="Mask_Group_1" data-name="Mask Group 1" transform="translate(-783 -838)" clip-path="url(#clip-path)">
    <g id="Group_323" data-name="Group 323" transform="translate(916.418 803.623)" opacity="0.2">
      <g id="Group_320" data-name="Group 320" transform="translate(0)">
        <path id="Path_187" data-name="Path 187" d="M339.989,406.9l179.745.054a7.323,7.323,0,0,0,6.413-10.863L473.1,300.017l-.126-.076H341.808c-40.974,0-74.039-33.549-71.187-74.423a69.631,69.631,0,0,1,69.369-64.659h179.89a7.321,7.321,0,0,0,6.406-10.87l-48.963-88.4A14.911,14.911,0,0,0,464.275,53.9H342.813c-96.936,0-177.9,76.971-179.3,173.9C162.084,326.308,241.8,406.9,339.989,406.9Z" transform="translate(-163.493 -53.903)" fill="#0090df"/>
      </g>
      <g id="Group_321" data-name="Group 321" transform="translate(0 175.212)">
        <path id="Path_188" data-name="Path 188" d="M270.494,102.373c-.007.43-.032.853-.032,1.287A69.615,69.615,0,0,0,340,173.2H473.075l53.2,96.368a7.177,7.177,0,0,1-6.286,10.646L340,280.159c-97.739,0-177.182-79.863-176.492-177.761l.025-.025Z" transform="translate(-163.505 -102.373)" fill="url(#linear-gradient)"/>
      </g>
      <g id="Group_322" data-name="Group 322" transform="translate(1.64 246.038)" opacity="0.6">
        <path id="Path_189" data-name="Path 189" d="M164.911,407.294,470.547,121.966l56.421,102.2a7.175,7.175,0,0,1-1.305,8.643L335.8,415.547a14.928,14.928,0,0,1-10.357,4.172H169.809A7.178,7.178,0,0,1,164.911,407.294Z" transform="translate(-162.617 -121.966)" fill="#d1a42e"/>
      </g>
    </g>
  </g>
</svg>
