<svg xmlns="http://www.w3.org/2000/svg" width="24.607" height="30" viewBox="0 0 24.607 30">
  <g id="apple" transform="translate(-46.022)">
    <path id="Path_5694" data-name="Path 5694" d="M54.18,140.459c-4.465-.025-8.158-8.907-8.158-13.431,0-7.389,5.688-9.007,7.88-9.007a9.261,9.261,0,0,1,2.973.713,6.781,6.781,0,0,0,1.7.474,5.383,5.383,0,0,0,1.218-.385,9.969,9.969,0,0,1,3.671-.865h.009a7.6,7.6,0,0,1,6.3,3.1l.459.672-.661.486a5.4,5.4,0,0,0-2.667,4.469,5.042,5.042,0,0,0,2.888,4.663c.414.243.842.493.842,1.04,0,.357-2.925,8.027-7.173,8.027a5.89,5.89,0,0,1-2.422-.573,5.015,5.015,0,0,0-2.156-.506,5.661,5.661,0,0,0-1.707.45,8.543,8.543,0,0,1-2.961.673Z" transform="translate(0 -110.459)" fill="#fff"/>
    <path id="Path_5695" data-name="Path 5695" d="M261.27,0c.12,4.328-2.975,7.331-6.067,7.142C254.693,3.688,258.294,0,261.27,0Z" transform="translate(-197.188)" fill="#fff"/>
  </g>
</svg>
