<svg xmlns="http://www.w3.org/2000/svg" width="243.708" height="323.332" viewBox="0 0 243.708 323.332">
  <g id="Group_382" data-name="Group 382" transform="translate(0 3.191)">
    <g id="Group_379" data-name="Group 379" transform="translate(55.328)">
      <path id="Path_321" data-name="Path 321" d="M272.1,158.908A10.594,10.594,0,0,1,261.5,169.593a10.736,10.736,0,0,1-11.185-10.209,10.6,10.6,0,0,1,10.613-10.627A10.745,10.745,0,0,1,272.1,158.908Z" transform="translate(-250.307 -92.343)" fill="#fff" stroke="#000" stroke-miterlimit="10" stroke-width="1.092"/>
      <path id="Path_322" data-name="Path 322" d="M350.576,157.191a10.3,10.3,0,0,1-10.354,10.671,11.023,11.023,0,0,1-11.4-10.2,10.3,10.3,0,0,1,10.358-10.612A11.031,11.031,0,0,1,350.576,157.191Z" transform="translate(-245.944 -92.438)" fill="#fff" stroke="#000" stroke-miterlimit="10" stroke-width="1.092"/>
      <path id="Path_323" data-name="Path 323" d="M260.674,162.117l-.75-27.3c-.586-21.349,17.257-39.017,39.635-39.492h0c22.368-.475,41.529,16.4,42.6,37.716l1.369,27.265" transform="translate(-249.773 -95.314)" fill="none" stroke="#d1a42e" stroke-miterlimit="10" stroke-width="6.377"/>
    </g>
    <path id="Path_324" data-name="Path 324" d="M412.222,140.285l-201.584,4.376-12.746,232.1,203.381-4.89Z" transform="translate(-197.892 -92.814)" fill="#8fbcd9"/>
    <g id="Group_380" data-name="Group 380" transform="translate(203.381 47.471)">
      <path id="Path_325" data-name="Path 325" d="M406.587,145.629l12.12,2.931-9.84,259.087L400.909,382.8Z" transform="translate(-389.99 -139.988)" fill="#c4e4f5"/>
      <path id="Path_326" data-name="Path 326" d="M407.162,145.926l-5.649-5.641L390.564,371.868,401.484,383.1Z" transform="translate(-390.564 -140.285)" fill="#aed4eb"/>
    </g>
    <path id="Path_327" data-name="Path 327" d="M429.1,148.406,225.429,153.24,214.021,412.5,440.7,406.97Z" transform="translate(-196.996 -92.363)" fill="#e4f5fc"/>
    <path id="Path_328" data-name="Path 328" d="M220.492,149.689l5.3,3.086L214.373,412.433,207.7,387.506Z" transform="translate(-197.347 -92.291)" fill="#c4e4f5"/>
    <path id="Path_329" data-name="Path 329" d="M221.038,149.981l-10.4-5.55-12.746,232.1L208.249,387.8Z" transform="translate(-197.892 -92.584)" fill="#aed4eb"/>
    <g id="Group_381" data-name="Group 381" transform="translate(78.747 11.052)">
      <path id="Path_330" data-name="Path 330" d="M294.353,169.769a10.562,10.562,0,0,1-10.571,10.753A10.867,10.867,0,0,1,272.5,170.25a10.567,10.567,0,0,1,10.575-10.693A10.874,10.874,0,0,1,294.353,169.769Z" transform="translate(-272.493 -102.795)" fill="#c4e4f5"/>
      <path id="Path_331" data-name="Path 331" d="M291.467,169.7a7.912,7.912,0,0,1-7.919,8.054,8.139,8.139,0,0,1-8.452-7.694,7.917,7.917,0,0,1,7.921-8.01A8.145,8.145,0,0,1,291.467,169.7Z" transform="translate(-272.349 -102.656)" fill="#8fbcd9"/>
      <path id="Path_332" data-name="Path 332" d="M372.872,168.409a10.265,10.265,0,0,1-10.314,10.737,11.156,11.156,0,0,1-11.5-10.258,10.27,10.27,0,0,1,10.32-10.677A11.162,11.162,0,0,1,372.872,168.409Z" transform="translate(-268.128 -102.87)" fill="#c4e4f5"/>
      <path id="Path_333" data-name="Path 333" d="M370.005,168.339a7.912,7.912,0,0,1-7.918,8.054,8.14,8.14,0,0,1-8.453-7.694,7.916,7.916,0,0,1,7.922-8.01A8.145,8.145,0,0,1,370.005,168.339Z" transform="translate(-267.984 -102.732)" fill="#8fbcd9"/>
      <path id="Path_334" data-name="Path 334" d="M282.9,173l-.928-27.468c-.726-21.48,17.054-39.258,39.495-39.736h0c22.431-.479,41.757,16.493,42.97,37.945l1.551,27.432" transform="translate(-271.968 -105.784)" fill="none" stroke="#d1a42e" stroke-linecap="round" stroke-linejoin="round" stroke-width="6.377"/>
    </g>
  </g>
</svg>
