<svg xmlns="http://www.w3.org/2000/svg" width="30.001" height="30" viewBox="0 0 30.001 30">
  <path id="Icon" d="M23.25,30a2.25,2.25,0,1,1,2.25-2.249A2.252,2.252,0,0,1,23.25,30ZM9.75,30A2.25,2.25,0,1,1,12,27.751,2.252,2.252,0,0,1,9.75,30Zm13.343-7.5H10.074a4.522,4.522,0,0,1-4.4-3.556l-.049-.261L3.213,3H1.5A1.5,1.5,0,0,1,1.326.009L1.5,0h3A1.5,1.5,0,0,1,5.948,1.107l.035.165L6.709,6H28.5a1.481,1.481,0,0,1,1.113.494,1.5,1.5,0,0,1,.38,1.157l-.028.176-2.479,11.15a4.52,4.52,0,0,1-4.119,3.517ZM7.171,9l1.42,9.227A1.5,1.5,0,0,0,9.9,19.49l.169.009H23.093a1.5,1.5,0,0,0,1.417-1.007l.047-.167L26.63,9Z" fill="#fff"/>
</svg>
