<svg xmlns="http://www.w3.org/2000/svg" width="35" height="35" viewBox="0 0 35 35">
  <path id="Icon" d="M17.5,35A17.5,17.5,0,1,1,35,17.5,17.52,17.52,0,0,1,17.5,35Zm0-31.5a14,14,0,1,0,14,14A14.016,14.016,0,0,0,17.5,3.5Zm7,22.751a1.763,1.763,0,0,1-1.058-.356l-.18-.158L17.5,19.974l-5.763,5.763a1.747,1.747,0,0,1-2.474,0,1.751,1.751,0,0,1-.145-2.309l.145-.165L15.026,17.5,9.263,11.737a1.75,1.75,0,0,1,2.311-2.619l.164.145L17.5,15.026l5.763-5.763a1.75,1.75,0,0,1,2.621,2.311l-.146.164L19.974,17.5l5.763,5.763A1.751,1.751,0,0,1,24.5,26.251Z" fill="#d1a42e"/>
</svg>
