<svg xmlns="http://www.w3.org/2000/svg" width="30" height="30" viewBox="0 0 30 30">
  <path id="Icon" d="M22.5,30A1.5,1.5,0,0,1,21,28.5V24H16.5a1.5,1.5,0,0,1,0-3H21V16.5a1.5,1.5,0,0,1,3,0V21h4.5a1.5,1.5,0,0,1,0,3H24v4.5A1.5,1.5,0,0,1,22.5,30Zm-12,0h-6A4.5,4.5,0,0,1,0,25.5V7.5A4.505,4.505,0,0,1,4.5,3H6V1.5a1.5,1.5,0,0,1,3,0V3H21V1.5a1.5,1.5,0,0,1,3,0V3h1.5A4.505,4.505,0,0,1,30,7.5v3a1.5,1.5,0,1,1-3,0v-3A1.5,1.5,0,0,0,25.5,6H24V7.5a1.5,1.5,0,0,1-3,0V6H9V7.5a1.5,1.5,0,0,1-3,0V6H4.5A1.5,1.5,0,0,0,3,7.5V12h7.5a1.5,1.5,0,1,1,0,3H3V25.5A1.5,1.5,0,0,0,4.5,27h6a1.5,1.5,0,1,1,0,3Z" fill="#fff"/>
</svg>
