<svg xmlns="http://www.w3.org/2000/svg" width="30" height="30" viewBox="0 0 30 30">
  <path id="Icon" d="M28.5,0C13.584,0,0,13.584,0,28.5A1.5,1.5,0,0,0,1.5,30h6A4.5,4.5,0,0,0,12,25.5v-6a1.5,1.5,0,0,0-.668-1.247L7.046,15.394l.41-.618a28.421,28.421,0,0,1,7.938-7.732l2.858,4.288A1.5,1.5,0,0,0,19.5,12h6A4.505,4.505,0,0,0,30,7.5v-6A1.5,1.5,0,0,0,28.5,0ZM20.3,9l-2.3-3.444.606-.293A23.676,23.676,0,0,1,27,3.052V7.5A1.5,1.5,0,0,1,25.5,9H20.3ZM3.052,27a23.794,23.794,0,0,1,2.5-8.994L9,20.3v5.2A1.5,1.5,0,0,1,7.5,27Z" transform="translate(30 30) rotate(180)" fill="#fff"/>
</svg>
