<svg xmlns="http://www.w3.org/2000/svg" width="37" height="30" viewBox="0 0 37 30">
  <path id="Icon" d="M18.5,30a15.239,15.239,0,0,1-9.375-3.385A33.621,33.621,0,0,1,.9,16.607l-.381-.672L0,15l.523-.935A34.925,34.925,0,0,1,8.905,3.555,15.331,15.331,0,0,1,18.5,0a15.239,15.239,0,0,1,9.375,3.385A33.624,33.624,0,0,1,36.1,13.394l.381.672L37,15l-.9,1.606a33.624,33.624,0,0,1-8.22,10.009A15.239,15.239,0,0,1,18.5,30Zm0-26.251C13.425,3.75,8.635,7.535,4.264,15c4.371,7.465,9.16,11.25,14.236,11.25,4.934,0,9.594-3.568,13.851-10.6L32.736,15l-.385-.646C28.088,7.317,23.428,3.75,18.5,3.75Zm0,16.875A5.625,5.625,0,1,1,24.049,15,5.594,5.594,0,0,1,18.5,20.625Z" fill="#fff"/>
</svg>
