<svg id="facebook" xmlns="http://www.w3.org/2000/svg" width="30.76" height="30.76" viewBox="0 0 30.76 30.76">
  <path id="Path_3" data-name="Path 3" d="M291.271,508.668q-.207.034-.415.062Q291.064,508.7,291.271,508.668Zm0,0" transform="translate(-273.398 -478.124)" fill="#fff"/>
  <path id="Path_4" data-name="Path 4" d="M299.537,507.793l-.2.035Zm0,0" transform="translate(-281.364 -477.305)" fill="#fff"/>
  <path id="Path_5" data-name="Path 5" d="M278.1,510.34q-.242.027-.487.048Q277.854,510.368,278.1,510.34Zm0,0" transform="translate(-260.951 -479.688)" fill="#fff"/>
  <path id="Path_6" data-name="Path 6" d="M286.679,509.738l-.233.029Zm0,0" transform="translate(-269.246 -479.124)" fill="#fff"/>
  <path id="Path_7" data-name="Path 7" d="M306.839,506.41l-.175.037Zm0,0" transform="translate(-288.248 -476.012)" fill="#fff"/>
  <path id="Path_8" data-name="Path 8" d="M324.625,502.113l-.141.039Zm0,0" transform="translate(-304.996 -471.993)" fill="#fff"/>
  <path id="Path_9" data-name="Path 9" d="M319.213,503.543l-.154.04Zm0,0" transform="translate(-299.898 -473.33)" fill="#fff"/>
  <path id="Path_10" data-name="Path 10" d="M312.23,505.254l-.163.037Zm0,0" transform="translate(-293.325 -474.93)" fill="#fff"/>
  <path id="Path_11" data-name="Path 11" d="M273.742,511.09l-.262.02Zm0,0" transform="translate(-257.06 -480.389)" fill="#fff"/>
  <path id="Path_12" data-name="Path 12" d="M30.76,15.38A15.38,15.38,0,1,0,15.38,30.76c.09,0,.18,0,.27,0V18.784h-3.3V14.933h3.3V12.1c0-3.286,2.006-5.075,4.938-5.075a27.2,27.2,0,0,1,2.962.151V10.61H21.529c-1.595,0-1.9.758-1.9,1.87v2.453h3.814l-.5,3.851H19.625V30.166A15.388,15.388,0,0,0,30.76,15.38Zm0,0" fill="#fff"/>
  <path id="Path_13" data-name="Path 13" d="M265.41,511.43q-.259.017-.519.026Q265.151,511.447,265.41,511.43Zm0,0" transform="translate(-248.996 -480.707)" fill="#fff"/>
  <path id="Path_14" data-name="Path 14" d="M260.779,511.836l-.275.007Zm0,0" transform="translate(-244.864 -481.087)" fill="#fff"/>
</svg>
