<svg id="Group_315" data-name="Group 315" xmlns="http://www.w3.org/2000/svg" width="59.745" height="84.659" viewBox="0 0 59.745 84.659">
  <path id="Path_182" data-name="Path 182" d="M1199.234,230.76,1162.59,209.6a3.552,3.552,0,0,0-3.881-.189l-.027-.005-6.221,3.482a75.318,75.318,0,0,1,4.166,7.945v33.014c0,4.188,2.614,9.054,5.755,10.868l29.793,17.189c2.779,4.675,4.614,7.734,4.614,7.734l5.713-3.321v-.01a5.093,5.093,0,0,0,2.549-4.73V241.628C1205.051,237.439,1202.376,232.573,1199.234,230.76Z" transform="translate(-1145.306 -208.919)" fill="#f1a32f"/>
  <path id="Path_183" data-name="Path 183" d="M1191.655,291.647,1155,270.485c-3.141-1.814-5.688-6.68-5.688-10.868V219.67c0-4.188,2.547-6.114,5.688-4.3l36.655,21.163c3.141,1.813,5.688,6.679,5.688,10.867v39.947C1197.343,291.536,1194.8,293.461,1191.655,291.647Z" transform="translate(-1144.163 -211.012)" fill="#ffd22d"/>
  <path id="Path_184" data-name="Path 184" d="M1183.574,296.89l-36.655-21.163c-3.141-1.814-5.688-6.679-5.688-10.868V224.913c0-4.188,2.547-6.114,5.688-4.3l36.655,21.163c3.141,1.813,5.688,6.679,5.688,10.868V292.59C1189.262,296.779,1186.715,298.7,1183.574,296.89Z" transform="translate(-1141.231 -212.914)" fill="#ffd22d" opacity="0.36"/>
  <g id="Group_313" data-name="Group 313" transform="translate(33.009 28.051)">
    <path id="Path_185" data-name="Path 185" d="M1193.037,283.337l.643.371c1.423.821,1.8.453,1.8-1.684,0-2.1-.136-4.043-.136-6.414,0-2.954.813-3.612,2.507-3.1v-.155c-1.693-1.444-2.507-3.04-2.507-5.994,0-2.371.136-4.158.136-6.257,0-2.138-.373-2.935-1.8-3.757l-.643-.371v-3.032l2.133,1.232c2.981,1.721,4.335,3.825,4.335,8.022,0,2.759-.338,4-.338,6.451a5.467,5.467,0,0,0,2.913,4.558v3.343c-2.2-1.194-2.913-.166-2.913,1.194,0,2.449.338,4.082.338,6.842,0,4.2-1.354,4.737-4.335,3.016l-2.133-1.232Z" transform="translate(-1193.037 -252.944)" fill="#fff"/>
  </g>
  <g id="Group_314" data-name="Group 314" transform="translate(13.383 19.793)">
    <path id="Path_186" data-name="Path 186" d="M1171.278,275.556l-2.134-1.232c-2.98-1.721-4.335-3.824-4.335-8.022,0-2.76.338-4,.338-6.451a5.467,5.467,0,0,0-2.912-4.558v-3.343c2.2,1.193,2.912.166,2.912-1.195,0-2.449-.338-4.082-.338-6.841,0-4.2,1.355-4.737,4.335-3.016l2.134,1.232v3.032l-.643-.371c-1.423-.821-1.8-.454-1.8,1.684,0,2.1.136,4.043.136,6.414,0,2.954-.814,3.611-2.507,3.1v.155c1.693,1.444,2.507,3.04,2.507,5.994,0,2.371-.136,4.159-.136,6.257,0,2.138.372,2.936,1.8,3.757l.643.371Z" transform="translate(-1162.235 -239.983)" fill="#fff"/>
  </g>
</svg>
