<svg id="Group_311" data-name="Group 311" xmlns="http://www.w3.org/2000/svg" width="58.892" height="83.409" viewBox="0 0 58.892 83.409">
  <path id="Path_173" data-name="Path 173" d="M1199.819,348.736l-36.513-21.163a3.444,3.444,0,0,0-3.816-.189l.006-.005-6.15,3.482a68.417,68.417,0,0,1,4.239,7.945V371.82c0,4.188,2.558,9.054,5.7,10.868l29.765,17.189c2.778,4.675,4.656,7.733,4.656,7.733l5.754-3.32v-.01c1.274-.6,1.911-2.271,1.911-4.73V359.6C1205.373,355.415,1202.96,350.55,1199.819,348.736Z" transform="translate(-1146.48 -326.895)" fill="#7878ea"/>
  <path id="Path_174" data-name="Path 174" d="M1192.48,409.623l-36.655-21.162c-3.141-1.814-5.688-6.68-5.688-10.868V337.646c0-4.189,2.547-6.113,5.688-4.3l36.655,21.163c3.141,1.813,5.688,6.679,5.688,10.868v39.947C1198.168,409.512,1195.621,411.437,1192.48,409.623Z" transform="translate(-1145.316 -328.988)" fill="#8585ff"/>
  <path id="Path_175" data-name="Path 175" d="M1184.912,412.905l-36.654-21.163c-3.141-1.813-5.688-6.679-5.688-10.867V340.928c0-4.189,2.547-6.114,5.688-4.3l36.654,21.163c3.142,1.814,5.688,6.68,5.688,10.868v39.947C1190.6,412.794,1188.054,414.719,1184.912,412.905Z" transform="translate(-1142.57 -330.179)" fill="#8585ff" opacity="0.47"/>
  <g id="Group_310" data-name="Group 310" transform="translate(9.039 27.156)">
    <g id="Group_307" data-name="Group 307">
      <path id="Path_176" data-name="Path 176" d="M1166.476,392.315l-9.72-16.764,10.583-6.034,2.043,3.584-6.974,3.976,7.635,13.169Z" transform="translate(-1156.757 -369.516)" fill="#fff"/>
    </g>
    <g id="Group_308" data-name="Group 308" transform="translate(26.049 10.127)">
      <path id="Path_177" data-name="Path 177" d="M1200.547,408.326l-2.043-3.584,6.873-3.918-7.736-13.345,3.569-2.069,9.821,16.939Z" transform="translate(-1197.641 -385.41)" fill="#fff"/>
    </g>
    <g id="Group_309" data-name="Group 309" transform="translate(14.564 3.078)">
      <rect id="Rectangle_18" data-name="Rectangle 18" width="27.783" height="4.125" transform="translate(0 26.817) rotate(-74.85)" fill="#fff"/>
    </g>
  </g>
</svg>
