<svg id="Group_312" data-name="Group 312" xmlns="http://www.w3.org/2000/svg" width="60.363" height="83.062" viewBox="0 0 60.363 83.062">
  <path id="Path_178" data-name="Path 178" d="M1093.611,175.484l-36.581-21.163a3.5,3.5,0,0,0-3.849-.189l-.01-.006-6.023,3.483s1.817,3.65,4.366,7.945v33.013c0,4.189,2.423,9.055,5.564,10.868l29.7,17.189c2.778,4.675,4.757,7.734,4.757,7.734l5.856-3.32v-.01a6.682,6.682,0,0,0,1.911-4.73V186.352C1099.3,182.164,1096.752,177.3,1093.611,175.484Z" transform="translate(-1038.938 -153.644)" fill="#22c6a6"/>
  <path id="Path_179" data-name="Path 179" d="M1086.054,236.371,1049.4,215.209c-3.141-1.813-5.688-6.679-5.688-10.868V164.394c0-4.189,2.547-6.114,5.688-4.3l36.655,21.163c3.141,1.814,5.688,6.679,5.688,10.868v39.947C1091.742,236.26,1089.2,238.185,1086.054,236.371Z" transform="translate(-1037.691 -155.737)" fill="#27e0c0"/>
  <path id="Path_180" data-name="Path 180" d="M1076.6,239.109l-36.654-21.163c-3.141-1.814-5.688-6.679-5.688-10.868V167.132c0-4.188,2.547-6.114,5.688-4.3l36.654,21.163c3.142,1.813,5.689,6.679,5.689,10.868v39.947C1082.293,239,1079.746,240.923,1076.6,239.109Z" transform="translate(-1034.262 -156.73)" fill="#27e0c0" opacity="0.36"/>
  <path id="Path_181" data-name="Path 181" d="M1084.567,210.947h0c-1.795-1.036-2.694-4.046-1.425-4.77h0c1.437-.819,1.437-3.492,0-5.97l-.74-1.276c-1.437-2.479-3.766-3.824-5.2-3h0c-1.269.723-3.439-1.561-3.439-3.621h0a8.107,8.107,0,0,0-3.68-6.346l-1.046-.6c-2.032-1.173-3.679-.234-3.679,2.1h0c0,2.06-2.17,1.838-3.439-.351h0c-1.437-2.479-3.767-3.824-5.2-3l-.74.421c-1.437.819-1.437,3.493,0,5.971h0c1.269,2.189.371,4.161-1.425,3.125h0c-2.032-1.173-3.679-.234-3.679,2.1v1.2a8.107,8.107,0,0,0,3.679,6.346c1.8,1.037,2.695,4.046,1.425,4.77h0c-1.437.819-1.437,3.492,0,5.971l.74,1.275c1.437,2.479,3.766,3.824,5.2,3h0c1.269-.723,3.439,1.561,3.439,3.621h0a8.109,8.109,0,0,0,3.679,6.347l1.046.6c2.032,1.174,3.68.234,3.68-2.1,0-2.06,2.17-1.838,3.439.351,1.437,2.479,3.766,3.823,5.2,3l.74-.422c1.437-.819,1.437-3.493,0-5.971h0c-1.269-2.19-.37-4.161,1.425-3.125h0c2.033,1.174,3.68.234,3.68-2.1v-1.2A8.107,8.107,0,0,0,1084.567,210.947Zm-15.01,6.634c-5.043-2.911-9.131-9.963-9.131-15.749s4.088-8.118,9.131-5.206,9.131,9.963,9.131,15.75S1074.6,220.493,1069.557,217.581Z" transform="translate(-1040.288 -164.607)" fill="#fff"/>
</svg>
