<svg id="instagram" xmlns="http://www.w3.org/2000/svg" width="30.76" height="30.76" viewBox="0 0 30.76 30.76">
  <path id="Path_15" data-name="Path 15" d="M213.339,210.17a3.17,3.17,0,1,1-3.17-3.17A3.17,3.17,0,0,1,213.339,210.17Zm0,0" transform="translate(-194.79 -194.79)" fill="#fff"/>
  <path id="Path_16" data-name="Path 16" d="M150.693,137.676a3.149,3.149,0,0,0-1.8-1.8,5.261,5.261,0,0,0-1.765-.327c-1-.046-1.3-.056-3.842-.056s-2.84.01-3.842.055a5.264,5.264,0,0,0-1.765.327,3.15,3.15,0,0,0-1.8,1.8,5.263,5.263,0,0,0-.327,1.766c-.046,1-.056,1.3-.056,3.842s.01,2.84.056,3.842a5.261,5.261,0,0,0,.327,1.765,3.149,3.149,0,0,0,1.8,1.8,5.256,5.256,0,0,0,1.766.328c1,.046,1.3.055,3.842.055s2.84-.01,3.842-.055a5.256,5.256,0,0,0,1.766-.328,3.149,3.149,0,0,0,1.8-1.8,5.265,5.265,0,0,0,.327-1.765c.046-1,.055-1.3.055-3.842s-.01-2.84-.055-3.842A5.253,5.253,0,0,0,150.693,137.676Zm-7.413,10.491a4.883,4.883,0,1,1,4.883-4.883A4.883,4.883,0,0,1,143.28,148.167Zm5.076-8.818a1.141,1.141,0,1,1,1.141-1.141A1.141,1.141,0,0,1,148.356,139.349Zm0,0" transform="translate(-127.9 -127.904)" fill="#fff"/>
  <path id="Path_17" data-name="Path 17" d="M15.38,0A15.38,15.38,0,1,0,30.76,15.38,15.382,15.382,0,0,0,15.38,0Zm8.778,19.021a6.479,6.479,0,0,1-.41,2.144,4.516,4.516,0,0,1-2.583,2.583,6.484,6.484,0,0,1-2.144.41c-.942.043-1.243.053-3.641.053s-2.7-.01-3.641-.053a6.484,6.484,0,0,1-2.144-.41,4.516,4.516,0,0,1-2.583-2.583,6.478,6.478,0,0,1-.41-2.144c-.043-.942-.054-1.243-.054-3.641s.01-2.7.053-3.641A6.48,6.48,0,0,1,7.012,9.6,4.519,4.519,0,0,1,9.6,7.012a6.485,6.485,0,0,1,2.144-.41c.942-.043,1.243-.053,3.641-.053s2.7.01,3.641.054a6.487,6.487,0,0,1,2.144.41A4.517,4.517,0,0,1,23.748,9.6a6.479,6.479,0,0,1,.411,2.144c.043.942.053,1.243.053,3.641S24.2,18.079,24.158,19.021Zm0,0" fill="#fff"/>
</svg>
