<svg xmlns="http://www.w3.org/2000/svg" width="59.999" height="60" viewBox="0 0 59.999 60">
  <path id="Icon" d="M47.4,60H9a9.01,9.01,0,0,1-9-9V33a9.01,9.01,0,0,1,9-9h4.145L22.659,4.976A9.029,9.029,0,0,1,30.112.019l.6-.019H31.5a7.517,7.517,0,0,1,7.485,7.007L39,7.5V24H51A9,9,0,0,1,59.91,34.244l-.086.521-3.6,18a9,9,0,0,1-8.292,7.217ZM30.709,6a3,3,0,0,0-2.495,1.334l-.186.324-9.71,19.419a2.966,2.966,0,0,0-.3.994L18,28.418V54H47.4a2.989,2.989,0,0,0,2.851-2.071l.089-.34,3.6-18a2.995,2.995,0,0,0-2.352-3.529l-.294-.043L51,30H39a6.021,6.021,0,0,1-5.983-5.551L33,24V7.5a1.5,1.5,0,0,0-1.229-1.477L31.5,6ZM9,30a3,3,0,0,0-3,3V51a3,3,0,0,0,3,3h3V30Z" fill="#d1a42e"/>
</svg>
