<svg xmlns="http://www.w3.org/2000/svg" width="30.003" height="30" viewBox="0 0 30.003 30">
  <path id="Icon" d="M7.54,30A7.537,7.537,0,0,1,1.984,17.368l.225-.236,4.264-4.263a1.508,1.508,0,0,1,2.249,2L8.606,15,4.343,19.265a4.522,4.522,0,0,0,6.2,6.579l.194-.182L15,21.4a1.508,1.508,0,0,1,2.249,2l-.117.131L12.87,27.793A7.49,7.49,0,0,1,7.54,30ZM11.8,19.706a1.508,1.508,0,0,1-1.066-2.574l6.395-6.395a1.508,1.508,0,0,1,2.133,2.132l-6.4,6.4A1.5,1.5,0,0,1,11.8,19.706Zm10.659-2.132A1.509,1.509,0,0,1,21.4,15l4.264-4.263a4.523,4.523,0,1,0-6.4-6.4L15,8.6A1.507,1.507,0,0,1,12.87,6.472l4.263-4.265a7.538,7.538,0,0,1,10.66,10.661l-4.264,4.263A1.5,1.5,0,0,1,22.464,17.574Z" transform="translate(0.005)" fill="#fff"/>
</svg>
