<svg id="e2atjflx18f91" xmlns="http://www.w3.org/2000/svg" xmlns:xlink="http://www.w3.org/1999/xlink" viewBox="0 0 400 400" shape-rendering="geometricPrecision" text-rendering="geometricPrecision"><style><![CDATA[#e2atjflx18f95_ts {animation: e2atjflx18f95_ts__ts 3000ms linear infinite normal forwards}@keyframes e2atjflx18f95_ts__ts { 0% {transform: translate(354.577270px,307.951000px) scale(0,0)} 33.333333% {transform: translate(354.577270px,307.951000px) scale(1,1)} 100% {transform: translate(354.577270px,307.951000px) scale(1,1)} }#e2atjflx18f912_ts {animation: e2atjflx18f912_ts__ts 3000ms linear infinite normal forwards}@keyframes e2atjflx18f912_ts__ts { 0% {transform: translate(185.207330px,280.018000px) scale(0,0)} 30% {transform: translate(185.207330px,280.018000px) scale(0,0)} 63.333333% {transform: translate(185.207330px,280.018000px) scale(1,1)} 100% {transform: translate(185.207330px,280.018000px) scale(1,1)} }#e2atjflx18f912 {animation: e2atjflx18f912_c_o 3000ms linear infinite normal forwards}@keyframes e2atjflx18f912_c_o { 0% {opacity: 0} 33.333333% {opacity: 0} 36.666667% {opacity: 1} 100% {opacity: 1} }#e2atjflx18f917_ts {animation: e2atjflx18f917_ts__ts 3000ms linear infinite normal forwards}@keyframes e2atjflx18f917_ts__ts { 0% {transform: translate(138.951814px,308.159000px) scale(0,0)} 63.333333% {transform: translate(138.951814px,308.159000px) scale(0,0)} 83.333333% {transform: translate(138.951814px,308.159000px) scale(1,1)} 100% {transform: translate(138.951814px,308.159000px) scale(1,1)} }]]></style><defs><clipPath id="e2atjflx18f92"><rect id="e2atjflx18f93" width="400" height="400" rx="0" ry="0" fill="rgb(0,0,0)" stroke="none" stroke-width="1"/></clipPath><linearGradient id="e2atjflx18f99-fill" x1="0.642000" y1="0.221000" x2="0.039000" y2="0.004195" spreadMethod="pad" gradientUnits="objectBoundingBox"><stop id="e2atjflx18f99-fill-0" offset="0%" stop-color="rgb(0,144,223)"/><stop id="e2atjflx18f99-fill-1" offset="100%" stop-color="rgb(4,5,6)"/></linearGradient></defs><g id="e2atjflx18f94" clip-path="url(#e2atjflx18f92)"><g id="e2atjflx18f95_ts" transform="translate(354.577270,307.951000) scale(0,0)"><g id="e2atjflx18f95" transform="translate(-145.860270,-216.114000)"><g id="e2atjflx18f96" transform="matrix(1 0 0 1 1.25900000000000 0)"><path id="e2atjflx18f97" d="M410.255000,291.785000L338.797000,291.807000C337.766604,291.807167,336.812835,291.262788,336.288967,290.375500C335.765100,289.488213,335.749140,288.390138,336.247000,287.488000L357.335000,249.288000L357.386000,249.258000L409.533000,249.258000C425.822000,249.258000,438.968000,235.920000,437.833000,219.670000C436.793853,205.200460,424.760796,193.987234,410.254000,193.970000L338.739000,193.970000C337.707677,193.970489,336.753079,193.425253,336.229558,192.536685C335.706037,191.648117,335.691750,190.548874,336.192000,189.647000L355.658000,154.504000C356.703064,152.618307,358.689078,151.448216,360.845000,151.448000L409.133000,151.448000C447.670000,151.448000,479.857000,182.048000,480.415000,220.582000C480.670896,239.362755,473.394947,257.463783,460.212065,270.842642C447.029183,284.221500,429.037486,291.763748,410.255000,291.785000Z" transform="matrix(1 0 0 1 -335.82299999999998 -151.44900000000001)" fill="rgb(0,144,223)" stroke="none" stroke-width="1"/></g><g id="e2atjflx18f98" transform="matrix(1 0 0 1 1.27600000000000 69.72300000000000)"><path id="e2atjflx18f99" d="M437.900000,263.200000C437.900000,263.371000,437.913000,263.540000,437.913000,263.712000C437.895915,278.973772,425.527773,291.341467,410.266000,291.358000L357.366000,291.358000L336.210000,329.669000C335.721976,330.553294,335.737688,331.629674,336.251315,332.499346C336.764942,333.369019,337.699978,333.902448,338.710000,333.902000L410.266000,333.880000C428.956141,333.859052,446.867391,326.390764,460.036134,313.127807C473.204877,299.864850,480.545290,281.900816,480.433000,263.211000L480.421000,263.200000Z" transform="matrix(1 0 0 1 -335.85000000000002 -263.19999999999999)" fill="url(#e2atjflx18f99-fill)" stroke="none" stroke-width="1"/></g><g id="e2atjflx18f910" transform="matrix(1 0 0 1 0 97.95300000000000)"><path id="e2atjflx18f911" d="M478.100000,421.809000L356.591000,308.375000L334.159000,349C333.534959,350.130557,333.747805,351.539275,334.678000,352.435000L410.159000,425.085000C411.265222,426.149496,412.740787,426.744094,414.276000,426.744000L476.150000,426.744000C477.320240,426.742713,478.371112,426.027170,478.801162,424.938813C479.231212,423.850456,478.953284,422.609856,478.100000,421.809000Z" transform="matrix(1 0 0 1 -333.80399999999997 -308.37500000000000)" fill="rgb(209,164,46)" stroke="none" stroke-width="1"/></g></g></g><g id="e2atjflx18f912_ts" transform="translate(185.207330,280.018000) scale(0,0)"><g id="e2atjflx18f912" transform="translate(-139.728330,-90.804000)" opacity="0"><path id="e2atjflx18f913" d="M126.510000,366.006000Q126.510000,378.690000,117.433000,386.523000C112.434089,390.965791,105.967736,393.401226,99.280000,393.360000C92.098358,393.425822,85.190795,390.606405,80.106382,385.534023C75.021968,380.461641,72.186193,373.560778,72.235000,366.379000L72.235000,326.156000L81.435000,326.156000L81.435000,366.379000C81.403325,371.120897,83.273034,375.677761,86.626137,379.030863C89.979239,382.383966,94.536103,384.253675,99.278000,384.222000C103.317459,384.288182,107.245702,382.897713,110.344000,380.305000Q108.479000,380.305000,104.065000,378.005000Q89.265000,370.233000,89.265000,353.385000C89.132004,346.073714,92.102417,339.048279,97.440000,334.050000C102.668052,328.875809,109.762490,326.029669,117.117000,326.156000L126.504000,326.156000ZM117.123000,365.011000L117.123000,335.170000C112.214249,335.077071,107.478799,336.984535,104.005000,340.454000C98.756256,345.566422,97.054767,353.312661,99.677793,360.154146C102.300818,366.995631,108.744779,371.618903,116.066000,371.912000C116.808024,369.688468,117.165480,367.354691,117.123000,365.011000ZM116.066000,317.887000C116.042153,320.314839,114.079839,322.277153,111.652000,322.301000C110.489173,322.318532,109.372542,321.846405,108.575000,321C107.745471,320.180198,107.285183,319.058180,107.300000,317.892000C107.299735,316.737697,107.758162,315.630594,108.574378,314.814378C109.390594,313.998162,110.497697,313.539735,111.652000,313.540000C112.817879,313.525729,113.939572,313.985522,114.760000,314.814000C115.606903,315.609938,116.080740,316.724871,116.066000,317.887000ZM126.760000,317.887000C126.736153,320.314839,124.773839,322.277153,122.346000,322.301000C121.182802,322.318939,120.065706,321.846768,119.268000,321C118.438471,320.180198,117.978183,319.058180,117.993000,317.892000C117.992735,316.737697,118.451162,315.630594,119.267378,314.814378C120.083594,313.998162,121.190697,313.539735,122.345000,313.540000C123.510879,313.525729,124.632572,313.985522,125.453000,314.814000C126.299696,315.610082,126.773493,316.724919,126.759000,317.887000Z" transform="matrix(1 0 0 1 -72.23600000000000 -309.74299999999999)" fill="rgb(36,77,117)" stroke="none" stroke-width="1"/><path id="e2atjflx18f914" d="M183.013000,378.700000L173.688000,378.700000L173.688000,307.451000L183.013000,307.451000Z" transform="matrix(1 0 0 1 -110.45099999999999 -307.45100000000002)" fill="rgb(36,77,117)" stroke="none" stroke-width="1"/><path id="e2atjflx18f915" d="M239.183000,389.900000C239.329657,396.934694,236.428136,403.689355,231.225000,408.426000L224.201000,402.271000C227.899374,398.727228,229.911891,393.775047,229.734000,388.656000C222.585667,388.764814,215.729012,385.825417,210.879000,380.573000C200.489710,369.769044,200.543249,352.671677,211,341.933000C215.991995,336.673737,222.962946,333.752273,230.213000,333.881000L239.181000,333.881000ZM229.733000,379.517000L229.733000,343.021000Q223.019000,343.021000,217.672000,348.771000Q212.325000,354.521000,212.327000,361.300000C212.234383,366.038259,214.022062,370.620354,217.299000,374.044000C220.444246,377.598133,224.987722,379.597277,229.733000,379.515000Z" transform="matrix(1 0 0 1 -121.53900000000000 -317.40699999999998)" fill="rgb(36,77,117)" stroke="none" stroke-width="1"/><path id="e2atjflx18f916" d="M287.342000,389.922000C287.489053,396.956771,284.587464,403.711588,279.384000,408.448000L272.359000,402.294000Q277.959000,397.008000,277.959000,387.994000L277.959000,333.783000L287.347000,333.783000Z" transform="matrix(1 0 0 1 -147.61900000000000 -317.37000000000000)" fill="rgb(36,77,117)" stroke="none" stroke-width="1"/></g></g><g id="e2atjflx18f917_ts" transform="translate(138.951814,308.159000) scale(0,0)"><g id="e2atjflx18f917" transform="translate(-93.499814,-28.141000)"><path id="e2atjflx18f918" d="M27.933000,0L93.420000,0L93.420000,0C93.420000,7.408292,90.477067,14.513160,85.238614,19.751614C80.000160,24.990067,72.895292,27.933000,65.487000,27.933000L0,27.933000L0,27.933000C0,12.506030,12.506030,0,27.933000,0Z" fill="rgb(0,144,223)" stroke="none" stroke-width="1"/><g id="e2atjflx18f919" transform="matrix(1 0 0 1 18.22000000000000 4.32600000000000)"><path id="e2atjflx18f920" d="M112.064000,476.247000C111.331434,476.257746,110.600502,476.174739,109.889000,476C109.302186,475.863442,108.798204,475.489800,108.497000,474.968000C108.143886,475.133964,107.775491,475.265247,107.397000,475.360000C106.338538,475.610344,105.235886,475.606918,104.179000,475.350000C103.678315,475.226073,103.208100,475.001513,102.797000,474.690000C102.379163,474.364471,102.040661,473.948352,101.807000,473.473000C101.534951,472.889611,101.404086,472.250363,101.425000,471.607000C101.413225,470.968263,101.528807,470.333579,101.765000,469.740000C101.983585,469.208917,102.322481,468.735831,102.755000,468.358000C103.193982,467.976380,103.706531,467.688794,104.261000,467.513000C104.878145,467.320857,105.521685,467.227043,106.168000,467.235000L110.268000,467.235000L110.268000,472.824000C110.205935,473.288980,110.362043,473.756567,110.691000,474.091000C111.124649,474.342774,111.625453,474.454530,112.125000,474.411000L112.290000,474.411000C112.461302,474.402203,112.626303,474.476696,112.733000,474.611000C112.858604,474.832932,112.912729,475.088192,112.888000,475.342000C112.899711,475.590847,112.882259,475.840210,112.836000,476.085000C112.814525,476.185863,112.722992,476.256207,112.620000,476.251000ZM103.400000,464C103.388453,463.671606,103.515888,463.353561,103.751000,463.124000C103.988056,462.895177,104.307701,462.772154,104.637000,462.783000C104.960800,462.769683,105.275211,462.893487,105.503000,463.124000C105.726265,463.359780,105.845207,463.675515,105.833000,464C105.844374,464.327632,105.725752,464.646473,105.503000,464.887000C105.278343,465.123242,104.962742,465.251159,104.637000,465.238000C104.305675,465.248392,103.984811,465.121267,103.750508,464.886775C103.516206,464.652283,103.389340,464.331316,103.400000,464ZM103.648000,471.507000C103.630729,471.884823,103.708430,472.260949,103.874000,472.601000C104.009949,472.858765,104.204080,473.081313,104.441000,473.251000C104.666941,473.409006,104.923433,473.518006,105.194000,473.571000C105.445035,473.623248,105.700595,473.650713,105.957000,473.653000C106.344579,473.664692,106.732198,473.631131,107.112000,473.553000C107.417962,473.472949,107.715117,473.362395,107.999000,473.223000L107.999000,469.070000L106.266000,469.070000C105.922419,469.068679,105.579828,469.106931,105.245000,469.184000C104.940967,469.250911,104.655700,469.384833,104.410000,469.576000C104.166980,469.774338,103.976110,470.029060,103.854000,470.318000C103.705307,470.693718,103.636183,471.096200,103.651000,471.500000ZM106.517000,464C106.505442,463.671800,106.632467,463.353875,106.867000,463.124000C107.104426,462.895121,107.424397,462.772111,107.754000,462.783000C108.077821,462.769558,108.392281,462.893381,108.620000,463.124000C108.843825,463.359494,108.963167,463.675335,108.951000,464C108.962323,464.327808,108.843305,464.646748,108.620000,464.887000C108.395419,465.123353,108.079765,465.251291,107.754000,465.238000C107.422675,465.248392,107.101811,465.121267,106.867508,464.886775C106.633206,464.652283,106.506340,464.331316,106.517000,464Z" transform="matrix(1 0 0 1 -101.42300000000000 -461.08999999999997)" fill="rgb(255,255,255)" stroke="none" stroke-width="1"/><path id="e2atjflx18f921" d="M121.538000,481.440000C121.710705,481.430884,121.876677,481.508063,121.981000,481.646000C122.106647,481.879531,122.160566,482.144954,122.136000,482.409000C122.154820,482.646284,122.123123,482.884862,122.043000,483.109000C122.002232,483.205092,121.910239,483.269526,121.806000,483.275000L118.753000,483.275000C118.501337,483.304678,118.248472,483.230264,118.053000,483.069000C117.905847,482.850782,117.840016,482.587811,117.867000,482.326000C117.867000,481.736000,118.073000,481.439000,118.485000,481.439000Z" transform="matrix(1 0 0 1 -107.61700000000000 -468.11900000000003)" fill="rgb(255,255,255)" stroke="none" stroke-width="1"/><path id="e2atjflx18f922" d="M126.434000,481.440000C126.606705,481.430884,126.772677,481.508063,126.877000,481.646000C127.002647,481.879531,127.056566,482.144954,127.032000,482.409000C127.050820,482.646284,127.019123,482.884862,126.939000,483.109000C126.898232,483.205092,126.806239,483.269526,126.702000,483.275000L123.649000,483.275000C123.397327,483.304797,123.144416,483.230369,122.949000,483.069000C122.801847,482.850782,122.736016,482.587811,122.763000,482.326000C122.763000,481.736000,122.969000,481.439000,123.382000,481.439000Z" transform="matrix(1 0 0 1 -109.46100000000000 -468.11900000000003)" fill="rgb(255,255,255)" stroke="none" stroke-width="1"/><path id="e2atjflx18f923" d="M128.253000,477.100000C128.751334,477.116228,129.249110,477.053795,129.728000,476.915000C130.053074,476.817140,130.343005,476.627557,130.563000,476.369000C130.764840,476.106497,130.896015,475.796634,130.944000,475.469000C131.009908,475.060373,131.041020,474.646889,131.037000,474.233000L131.037000,469.923000L133.285000,469.923000L133.285000,475.123000C133.256928,475.672523,133.477203,476.205588,133.885000,476.575000C134.364896,476.952874,134.967448,477.140192,135.577000,477.101000C135.752212,477.087814,135.922470,477.162818,136.031000,477.301000C136.148197,477.525784,136.198189,477.779561,136.175000,478.032000C136.186646,478.274686,136.165794,478.517840,136.113000,478.755000C136.071000,478.878000,136.003000,478.941000,135.907000,478.941000C135.602971,478.939444,135.299475,478.915378,134.999000,478.869000C134.684929,478.820813,134.377310,478.737282,134.082000,478.620000C133.793010,478.507381,133.519490,478.358524,133.268000,478.177000C133.020742,477.999311,132.810488,477.775131,132.649000,477.517000C132.275428,478.034015,131.743041,478.414693,131.133000,478.601000C130.300895,478.850291,129.434312,478.965071,128.566000,478.941000C128.309633,478.957974,128.055093,478.887464,127.844000,478.741000C127.657336,478.554201,127.566350,478.292293,127.597000,478.030000C127.589560,477.800499,127.643040,477.573123,127.752000,477.371000C127.853734,477.192597,128.048009,477.087510,128.253000,477.100000ZM129.305000,481.823000C129.292689,481.494670,129.419831,481.176451,129.655000,480.947000C129.892426,480.718121,130.212397,480.595111,130.542000,480.606000C130.865800,480.592683,131.180211,480.716487,131.408000,480.947000C131.632052,481.182286,131.751124,481.498367,131.738000,481.823000C131.748938,482.150561,131.630376,482.469241,131.408000,482.710000C131.183268,482.946132,130.867719,483.074028,130.542000,483.061000C130.210675,483.071392,129.889811,482.944267,129.655508,482.709775C129.421206,482.475283,129.294340,482.154316,129.305000,481.823000ZM132.419000,481.823000C132.406689,481.494670,132.533831,481.176451,132.769000,480.947000C133.006363,480.718023,133.326378,480.594996,133.656000,480.606000C133.979842,480.592432,134.294352,480.716274,134.522000,480.947000C134.746052,481.182286,134.865124,481.498367,134.852000,481.823000C134.862938,482.150561,134.744376,482.469241,134.522000,482.710000C134.297419,482.946353,133.981765,483.074291,133.656000,483.061000C133.324675,483.071392,133.003811,482.944267,132.769508,482.709775C132.535206,482.475283,132.408340,482.154316,132.419000,481.823000Z" transform="matrix(1 0 0 1 -111.28100000000001 -463.78300000000002)" fill="rgb(255,255,255)" stroke="none" stroke-width="1"/><path id="e2atjflx18f924" d="M140.307000,475.251000C140.060142,475.261992,139.815843,475.197078,139.607000,475.065000C139.407122,474.890540,139.306735,474.628337,139.339000,474.365000C139.339000,473.733000,139.559000,473.416000,139.999000,473.416000L146.061000,473.416000C146.671454,473.483643,147.282881,473.297431,147.752000,472.901000C148.112670,472.414850,148.281433,471.812787,148.226000,471.210000L148.226000,470.710000C148.283594,469.981904,148.024479,469.264327,147.515000,468.741000C146.840094,468.246068,146.007403,468.015220,145.174000,468.092000L141.008000,468.092000L141.008000,466.216000L146.721000,460.132000L148.247000,461.513000L143.793000,466.237000L145.793000,466.237000C146.516120,466.222364,147.236916,466.323646,147.928000,466.537000C148.471352,466.704552,148.971172,466.989627,149.392000,467.372000C149.765598,467.723213,150.051593,468.157172,150.227000,468.639000C150.410747,469.158733,150.501468,469.706780,150.495000,470.258000L150.495000,471.537000C150.596217,472.567794,150.280772,473.596232,149.619000,474.393000C148.827398,475.033812,147.817375,475.341195,146.803000,475.250000Z" transform="matrix(1 0 0 1 -115.70500000000000 -460.09300000000002)" fill="rgb(255,255,255)" stroke="none" stroke-width="1"/><path id="e2atjflx18f925" d="M164.216000,474.411000C164.835958,474.474015,165.454666,474.280307,165.928000,473.875000C166.273326,473.390136,166.434312,472.797964,166.382000,472.205000L166.382000,471.705000C166.387858,471.334800,166.335555,470.965975,166.227000,470.612000C166.126644,470.301378,165.949103,470.021303,165.711000,469.798000C165.432901,469.550264,165.101252,469.370235,164.742000,469.272000C164.247948,469.137260,163.736954,469.074943,163.225000,469.087000L161.514000,469.087000L161.514000,467.232000L163.800000,467.232000C164.536551,467.217728,165.270789,467.318956,165.976000,467.532000C166.531515,467.699723,167.044682,467.984437,167.481000,468.367000C167.866059,468.714681,168.162895,469.148967,168.347000,469.634000C168.537450,470.152244,168.631662,470.700910,168.625000,471.253000L168.625000,472.531000C168.603641,473.042131,168.802861,473.537814,169.172000,473.892000C169.556228,474.243331,170.063804,474.428459,170.584000,474.407000C170.753915,474.390258,170.919585,474.466780,171.017000,474.607000C171.119101,474.836376,171.161747,475.087785,171.141000,475.338000C171.154368,475.581270,171.130082,475.825145,171.069000,476.061000C171.020000,476.184000,170.963000,476.247000,170.893000,476.247000C170.347841,476.245137,169.808334,476.136420,169.305000,475.927000C168.809741,475.738874,168.388734,475.395402,168.105000,474.948000C167.821104,475.397785,167.400538,475.744752,166.905000,475.938000C166.277446,476.164072,165.612672,476.268929,164.946000,476.247000L160.203000,476.247000L160.203000,474.411000ZM162.072000,464C162.060442,463.671800,162.187467,463.353875,162.422000,463.124000C162.659426,462.895121,162.979397,462.772111,163.309000,462.783000C163.632842,462.769432,163.947352,462.893274,164.175000,463.124000C164.398532,463.359679,164.517825,463.675391,164.506000,464C164.517104,464.327772,164.398116,464.646631,164.175000,464.887000C163.950419,465.123353,163.634765,465.251291,163.309000,465.238000C162.977675,465.248392,162.656811,465.121267,162.422508,464.886775C162.188206,464.652283,162.061340,464.331316,162.072000,464Z" transform="matrix(1 0 0 1 -123.56900000000000 -461.08999999999997)" fill="rgb(255,255,255)" stroke="none" stroke-width="1"/><path id="e2atjflx18f926" d="M176.446000,473.390000C177.094772,473.458770,177.745030,473.274261,178.261000,472.875000C178.647036,472.408452,178.832566,471.807995,178.777000,471.205000L178.777000,460.069000L181.024000,460.069000L181.024000,471.600000C181.110951,472.628663,180.733094,473.642273,179.994000,474.363000C179.052641,475.028923,177.904103,475.336099,176.756000,475.229000C176.502022,475.241825,176.250168,475.176942,176.034000,475.043000C175.834122,474.868540,175.733735,474.606337,175.766000,474.343000C175.764084,474.119284,175.809761,473.897718,175.900000,473.693000C175.998537,473.485687,176.217947,473.363927,176.446000,473.390000Z" transform="matrix(1 0 0 1 -129.42599999999999 -460.06900000000002)" fill="rgb(255,255,255)" stroke="none" stroke-width="1"/><path id="e2atjflx18f927" d="M191.478000,460.069000L191.478000,475.226000L189.230000,475.226000L189.230000,460.069000Z" transform="matrix(1 0 0 1 -134.49799999999999 -460.06900000000002)" fill="rgb(255,255,255)" stroke="none" stroke-width="1"/></g></g></g></g></svg>