<svg xmlns="http://www.w3.org/2000/svg" xmlns:xlink="http://www.w3.org/1999/xlink" width="100.028" height="70" viewBox="0 0 100.028 70">
  <defs>
    <linearGradient id="linear-gradient" x1="0.642" y1="0.221" x2="0.039" y2="1.678" gradientUnits="objectBoundingBox">
      <stop offset="0" stop-color="#0090df"/>
      <stop offset="1" stop-color="#040506"/>
    </linearGradient>
  </defs>
  <g id="Group_35" data-name="Group 35" transform="translate(-72.193 -151.449)">
    <g id="Group_9" data-name="Group 9" transform="translate(72.201 151.449)">
      <g id="Group_7" data-name="Group 7" transform="translate(52.821)">
        <g id="Group_4" data-name="Group 4" transform="translate(0.407)">
          <path id="Path_4" data-name="Path 4" d="M359.908,196.86l-23.123.007a.942.942,0,0,1-.825-1.4l6.824-12.359.016-.01h16.874a8.947,8.947,0,1,0,.234-17.892H336.767a.942.942,0,0,1-.824-1.4l6.3-11.372a1.919,1.919,0,0,1,1.678-.989h15.625a22.707,22.707,0,1,1,.363,45.411Z" transform="translate(-335.823 -151.449)" fill="#0090df"/>
        </g>
        <g id="Group_5" data-name="Group 5" transform="translate(0.413 22.561)">
          <path id="Path_5" data-name="Path 5" d="M368.871,263.2c0,.055,0,.11,0,.166a8.956,8.956,0,0,1-8.946,8.946H342.811l-6.844,12.4a.923.923,0,0,0,.809,1.37l23.155-.007A22.731,22.731,0,0,0,382.635,263.2l0,0Z" transform="translate(-335.85 -263.2)" fill="url(#linear-gradient)"/>
        </g>
        <g id="Group_6" data-name="Group 6" transform="translate(0 31.696)">
          <path id="Path_6" data-name="Path 6" d="M380.5,345.081l-39.318-36.706-7.258,13.147a.923.923,0,0,0,.168,1.112l24.425,23.509a1.921,1.921,0,0,0,1.332.537h20.021A.923.923,0,0,0,380.5,345.081Z" transform="translate(-333.804 -308.375)" fill="#d1a42e"/>
        </g>
      </g>
      <g id="Group_8" data-name="Group 8" transform="translate(0 31.51)">
        <path id="Path_7" data-name="Path 7" d="M89.8,330.514a8.349,8.349,0,0,1-2.937,6.639,8.761,8.761,0,0,1-5.874,2.212,8.672,8.672,0,0,1-8.751-8.731V317.619h2.977v13.016a5.735,5.735,0,0,0,5.774,5.774,5.441,5.441,0,0,0,3.581-1.267,5.372,5.372,0,0,1-2.032-.744,8.9,8.9,0,0,1-2.143-14.223,8.836,8.836,0,0,1,6.367-2.555H89.8Zm-3.038-.322v-9.656a5.85,5.85,0,0,0-4.245,1.71,5.934,5.934,0,0,0,3.9,10.179A6.673,6.673,0,0,0,86.761,330.192Zm-.342-15.249a1.443,1.443,0,0,1-1.428,1.428,1.34,1.34,0,0,1-1-.422,1.389,1.389,0,0,1-.412-1.006,1.408,1.408,0,0,1,1.408-1.408,1.391,1.391,0,0,1,1.006.412A1.341,1.341,0,0,1,86.419,314.943Zm3.46,0a1.443,1.443,0,0,1-1.428,1.428,1.34,1.34,0,0,1-1-.422,1.389,1.389,0,0,1-.412-1.006,1.408,1.408,0,0,1,1.408-1.408,1.391,1.391,0,0,1,1.006.412A1.342,1.342,0,0,1,89.879,314.943Z" transform="translate(-72.236 -312.308)" fill="#fff"/>
        <path id="Path_8" data-name="Path 8" d="M176.705,330.505h-3.017V307.451h3.017Z" transform="translate(-153.225 -307.451)" fill="#fff"/>
        <path id="Path_9" data-name="Path 9" d="M214.792,352.008A7.884,7.884,0,0,1,212.217,358l-2.273-1.992a5.822,5.822,0,0,0,1.79-4.405,8.136,8.136,0,0,1-6.1-2.615,8.99,8.99,0,0,1,.04-12.5,8.367,8.367,0,0,1,6.217-2.605h2.9Zm-3.058-3.36V336.839a5.223,5.223,0,0,0-3.9,1.86,5.843,5.843,0,0,0-.121,8.178A5.251,5.251,0,0,0,211.734,348.648Z" transform="translate(-176.724 -328.551)" fill="#fff"/>
        <path id="Path_10" data-name="Path 10" d="M277.207,351.949a7.884,7.884,0,0,1-2.575,5.995l-2.273-1.991a6.061,6.061,0,0,0,1.811-4.627V333.783h3.038Z" transform="translate(-231.995 -328.472)" fill="#fff"/>
      </g>
    </g>
    <g id="Group_11" data-name="Group 11" transform="translate(72.193 212.342)">
      <path id="Rectangle_2" data-name="Rectangle 2" d="M9.039,0H30.229a0,0,0,0,1,0,0V0a9.039,9.039,0,0,1-9.039,9.039H0a0,0,0,0,1,0,0v0A9.039,9.039,0,0,1,9.039,0Z" fill="#0090df"/>
      <g id="Group_10" data-name="Group 10" transform="translate(5.896 1.4)">
        <path id="Path_11" data-name="Path 11" d="M104.866,467.138a2.781,2.781,0,0,1-.7-.08.7.7,0,0,1-.451-.334,1.953,1.953,0,0,1-.357.127,2.232,2.232,0,0,1-1.041,0,1.229,1.229,0,0,1-.447-.213,1.132,1.132,0,0,1-.32-.394,1.328,1.328,0,0,1-.123-.6,1.556,1.556,0,0,1,.11-.6,1.2,1.2,0,0,1,.32-.447,1.378,1.378,0,0,1,.487-.274,1.993,1.993,0,0,1,.617-.09h1.328v1.808a.492.492,0,0,0,.137.41.788.788,0,0,0,.464.1h.053a.172.172,0,0,1,.143.064.4.4,0,0,1,.05.237,1.033,1.033,0,0,1-.017.24.068.068,0,0,1-.07.054Zm-2.8-3.964a.378.378,0,0,1,.114-.283.394.394,0,0,1,.287-.11.372.372,0,0,1,.28.11.391.391,0,0,1,.107.283.4.4,0,0,1-.107.287.367.367,0,0,1-.28.113.388.388,0,0,1-.4-.4Zm.08,2.429a.732.732,0,0,0,.073.354.607.607,0,0,0,.184.21.64.64,0,0,0,.244.1,1.268,1.268,0,0,0,.247.026,1.614,1.614,0,0,0,.374-.033,1.529,1.529,0,0,0,.287-.107v-1.341h-.561a1.448,1.448,0,0,0-.33.037.677.677,0,0,0-.27.127.623.623,0,0,0-.18.24A.945.945,0,0,0,102.144,465.6Zm.927-2.429a.378.378,0,0,1,.113-.283.4.4,0,0,1,.287-.11.372.372,0,0,1,.28.11.39.39,0,0,1,.107.283.4.4,0,0,1-.107.287.366.366,0,0,1-.28.113.388.388,0,0,1-.4-.4Z" transform="translate(-101.423 -462.233)" fill="#fff"/>
        <path id="Path_12" data-name="Path 12" d="M119.055,481.44a.169.169,0,0,1,.143.067.436.436,0,0,1,.05.247.545.545,0,0,1-.03.227.088.088,0,0,1-.077.054h-.988a.3.3,0,0,1-.227-.067.364.364,0,0,1-.06-.24c0-.191.067-.287.2-.287Z" transform="translate(-114.55 -477.13)" fill="#fff"/>
        <path id="Path_13" data-name="Path 13" d="M123.95,481.44a.169.169,0,0,1,.143.067.436.436,0,0,1,.05.247.545.545,0,0,1-.03.227.088.088,0,0,1-.077.054h-.988a.3.3,0,0,1-.227-.067.363.363,0,0,1-.06-.24c0-.191.067-.287.2-.287Z" transform="translate(-118.458 -477.13)" fill="#fff"/>
        <path id="Path_14" data-name="Path 14" d="M127.806,472.25a1.534,1.534,0,0,0,.477-.06.571.571,0,0,0,.27-.177.627.627,0,0,0,.123-.291,2.367,2.367,0,0,0,.03-.4v-1.395h.727v1.682a.593.593,0,0,0,.193.47.8.8,0,0,0,.547.17.17.17,0,0,1,.147.064.427.427,0,0,1,.047.237.883.883,0,0,1-.02.234c-.014.04-.036.06-.067.06a1.992,1.992,0,0,1-.294-.023,1.365,1.365,0,0,1-.3-.081,1.186,1.186,0,0,1-.263-.143.758.758,0,0,1-.2-.214.946.946,0,0,1-.491.351,2.639,2.639,0,0,1-.831.11.368.368,0,0,1-.234-.064.28.28,0,0,1-.08-.23.42.42,0,0,1,.05-.213A.174.174,0,0,1,127.806,472.25Zm.34,1.528a.376.376,0,0,1,.113-.283.4.4,0,0,1,.287-.11.372.372,0,0,1,.28.11.39.39,0,0,1,.107.283.4.4,0,0,1-.107.287.367.367,0,0,1-.28.113.388.388,0,0,1-.4-.4Zm1.008,0a.376.376,0,0,1,.113-.283.4.4,0,0,1,.287-.11.372.372,0,0,1,.28.11.39.39,0,0,1,.107.283.4.4,0,0,1-.107.287.366.366,0,0,1-.28.113.388.388,0,0,1-.4-.4Z" transform="translate(-122.315 -467.939)" fill="#fff"/>
        <path id="Path_15" data-name="Path 15" d="M139.652,465.026a.391.391,0,0,1-.227-.06.258.258,0,0,1-.087-.227c0-.2.071-.307.214-.307h1.962a.724.724,0,0,0,.547-.167.8.8,0,0,0,.153-.547v-.16a.821.821,0,0,0-.23-.637,1.109,1.109,0,0,0-.757-.21h-1.348V462.1l1.849-1.969.494.447-1.441,1.528h.647a2.192,2.192,0,0,1,.691.1,1.254,1.254,0,0,1,.474.27,1.061,1.061,0,0,1,.27.41,1.518,1.518,0,0,1,.087.524v.414a1.255,1.255,0,0,1-.284.924,1.268,1.268,0,0,1-.911.277Z" transform="translate(-131.691 -460.121)" fill="#fff"/>
        <path id="Path_16" data-name="Path 16" d="M161.51,466.544a.737.737,0,0,0,.554-.173.809.809,0,0,0,.147-.54v-.16a1.145,1.145,0,0,0-.05-.354.624.624,0,0,0-.167-.263.781.781,0,0,0-.314-.17,1.712,1.712,0,0,0-.491-.06h-.554v-.6h.741a2.283,2.283,0,0,1,.7.1,1.316,1.316,0,0,1,.487.27,1.059,1.059,0,0,1,.28.41,1.468,1.468,0,0,1,.09.524v.414a.577.577,0,0,0,.177.441.638.638,0,0,0,.457.167.153.153,0,0,1,.14.064.484.484,0,0,1,.04.237.765.765,0,0,1-.023.234c-.016.04-.034.06-.057.06a1.35,1.35,0,0,1-.514-.1.793.793,0,0,1-.387-.317.805.805,0,0,1-.387.32,1.705,1.705,0,0,1-.634.1h-1.535v-.594Zm-.694-3.37a.378.378,0,0,1,.113-.283.4.4,0,0,1,.287-.11.372.372,0,0,1,.28.11.391.391,0,0,1,.107.283.4.4,0,0,1-.107.287.366.366,0,0,1-.28.113.388.388,0,0,1-.4-.4Z" transform="translate(-148.358 -462.233)" fill="#fff"/>
        <path id="Path_17" data-name="Path 17" d="M175.985,464.379a.819.819,0,0,0,.587-.167.741.741,0,0,0,.167-.54v-3.6h.727v3.73a1.117,1.117,0,0,1-.333.894,1.563,1.563,0,0,1-1.048.28.4.4,0,0,1-.234-.06.258.258,0,0,1-.087-.227.511.511,0,0,1,.043-.21A.174.174,0,0,1,175.985,464.379Z" transform="translate(-160.77 -460.069)" fill="#fff"/>
        <path id="Path_18" data-name="Path 18" d="M189.958,460.069v4.9h-.728v-4.9Z" transform="translate(-171.52 -460.069)" fill="#fff"/>
      </g>
    </g>
  </g>
</svg>
