<svg xmlns="http://www.w3.org/2000/svg" xmlns:xlink="http://www.w3.org/1999/xlink" width="143.359" height="100.324" viewBox="0 0 143.359 100.324">
  <defs>
    <linearGradient id="linear-gradient" x1="0.642" y1="0.221" x2="0.039" y2="1.678" gradientUnits="objectBoundingBox">
      <stop offset="0" stop-color="#0090df"/>
      <stop offset="1" stop-color="#040506"/>
    </linearGradient>
  </defs>
  <g id="Group_1046" data-name="Group 1046" transform="translate(-72.193 -151.449)">
    <g id="Group_9" data-name="Group 9" transform="translate(72.205 151.449)">
      <g id="Group_7" data-name="Group 7" transform="translate(75.703)">
        <g id="Group_4" data-name="Group 4" transform="translate(0.584)">
          <path id="Path_4" data-name="Path 4" d="M370.342,216.531l-33.139.01a1.35,1.35,0,0,1-1.183-2l9.78-17.713.023-.014h24.184a12.823,12.823,0,1,0,.335-25.643H337.175a1.35,1.35,0,0,1-1.181-2l9.028-16.3a2.751,2.751,0,0,1,2.406-1.417h22.394c17.872,0,32.8,14.192,33.058,32.062A32.577,32.577,0,0,1,370.342,216.531Z" transform="translate(-335.823 -151.449)" fill="#0090df"/>
        </g>
        <g id="Group_5" data-name="Group 5" transform="translate(0.592 32.335)">
          <path id="Path_5" data-name="Path 5" d="M383.176,263.2c0,.079.006.158.006.238a12.836,12.836,0,0,1-12.821,12.821H345.826l-9.809,17.767a1.323,1.323,0,0,0,1.159,1.963l33.185-.01A32.578,32.578,0,0,0,402.9,263.205l-.005-.005Z" transform="translate(-335.85 -263.2)" fill="url(#linear-gradient)"/>
        </g>
        <g id="Group_6" data-name="Group 6" transform="translate(0 45.427)">
          <path id="Path_6" data-name="Path 6" d="M400.722,360.981l-56.35-52.606-10.4,18.842a1.323,1.323,0,0,0,.241,1.593L369.215,362.5a2.753,2.753,0,0,0,1.909.77h28.695A1.323,1.323,0,0,0,400.722,360.981Z" transform="translate(-333.804 -308.375)" fill="#d1a42e"/>
        </g>
      </g>
      <g id="Group_8" data-name="Group 8" transform="translate(0 45.16)">
        <path id="Path_7" data-name="Path 7" d="M97.406,337.869a11.965,11.965,0,0,1-4.209,9.515,12.556,12.556,0,0,1-8.419,3.171,12.429,12.429,0,0,1-12.542-12.513V319.388H76.5v18.654a8.22,8.22,0,0,0,8.275,8.275A7.8,7.8,0,0,0,89.91,344.5,7.7,7.7,0,0,1,87,343.434a12.752,12.752,0,0,1-3.071-20.385,12.663,12.663,0,0,1,9.125-3.661h4.353Zm-4.353-.461V323.568a8.384,8.384,0,0,0-6.083,2.45,8.5,8.5,0,0,0,5.593,14.589A9.564,9.564,0,0,0,93.053,337.408Zm-.49-21.854a2.067,2.067,0,0,1-2.047,2.047,1.921,1.921,0,0,1-1.427-.605,1.991,1.991,0,0,1-.591-1.442,2.018,2.018,0,0,1,2.018-2.018,1.993,1.993,0,0,1,1.441.591A1.922,1.922,0,0,1,92.563,315.553Zm4.959,0a2.067,2.067,0,0,1-2.047,2.047,1.92,1.92,0,0,1-1.427-.605,1.991,1.991,0,0,1-.591-1.442,2.018,2.018,0,0,1,2.018-2.018,1.994,1.994,0,0,1,1.442.591A1.923,1.923,0,0,1,97.522,315.553Z" transform="translate(-72.236 -311.776)" fill="#244d75"/>
        <path id="Path_8" data-name="Path 8" d="M178.012,340.492h-4.324V307.451h4.324Z" transform="translate(-144.361 -307.451)" fill="#244d75"/>
        <path id="Path_9" data-name="Path 9" d="M219.847,359.86a11.3,11.3,0,0,1-3.691,8.592L212.9,365.6a8.343,8.343,0,0,0,2.566-6.314,11.66,11.66,0,0,1-8.744-3.748,12.884,12.884,0,0,1,.058-17.919,11.992,11.992,0,0,1,8.91-3.734h4.159Zm-4.383-4.815V338.12a7.486,7.486,0,0,0-5.594,2.666,8.374,8.374,0,0,0-.173,11.721A7.526,7.526,0,0,0,215.464,355.045Z" transform="translate(-165.288 -326.242)" fill="#244d75"/>
        <path id="Path_10" data-name="Path 10" d="M279.308,359.818a11.3,11.3,0,0,1-3.691,8.592l-3.258-2.854a8.687,8.687,0,0,0,2.595-6.632V333.783h4.354Z" transform="translate(-214.509 -326.171)" fill="#244d75"/>
      </g>
    </g>
    <g id="Group_11" data-name="Group 11" transform="translate(72.193 238.72)">
      <path id="Rectangle_2" data-name="Rectangle 2" d="M12.954,0h30.37a0,0,0,0,1,0,0V0A12.954,12.954,0,0,1,30.37,12.954H0a0,0,0,0,1,0,0v0A12.954,12.954,0,0,1,12.954,0Z" fill="#0090df"/>
      <g id="Group_10" data-name="Group 10" transform="translate(8.45 2.006)">
        <path id="Path_11" data-name="Path 11" d="M106.358,469.026a3.988,3.988,0,0,1-1.009-.115,1.01,1.01,0,0,1-.646-.478,2.8,2.8,0,0,1-.511.182,3.2,3.2,0,0,1-1.492,0,1.761,1.761,0,0,1-.641-.306,1.622,1.622,0,0,1-.459-.565,1.9,1.9,0,0,1-.177-.865,2.23,2.23,0,0,1,.158-.866,1.72,1.72,0,0,1,.459-.641,1.974,1.974,0,0,1,.7-.392,2.857,2.857,0,0,1,.885-.129h1.9v2.592a.705.705,0,0,0,.2.588,1.129,1.129,0,0,0,.665.148h.076a.246.246,0,0,1,.206.091.575.575,0,0,1,.072.339,1.479,1.479,0,0,1-.024.344.1.1,0,0,1-.1.077Zm-4.017-5.681a.541.541,0,0,1,.163-.406.565.565,0,0,1,.411-.158.534.534,0,0,1,.4.158.56.56,0,0,1,.153.406.576.576,0,0,1-.153.411.525.525,0,0,1-.4.163.556.556,0,0,1-.574-.574Zm.115,3.481a1.049,1.049,0,0,0,.1.507.869.869,0,0,0,.263.3.918.918,0,0,0,.349.148,1.814,1.814,0,0,0,.354.038,2.312,2.312,0,0,0,.536-.048,2.191,2.191,0,0,0,.411-.153V465.7h-.8a2.076,2.076,0,0,0-.473.053.97.97,0,0,0-.387.182.893.893,0,0,0-.258.344A1.355,1.355,0,0,0,102.456,466.826Zm1.329-3.481a.542.542,0,0,1,.162-.406.566.566,0,0,1,.411-.158.533.533,0,0,1,.4.158.559.559,0,0,1,.153.406.575.575,0,0,1-.153.411.525.525,0,0,1-.4.163.556.556,0,0,1-.574-.574Z" transform="translate(-101.423 -461.996)" fill="#fff"/>
        <path id="Path_12" data-name="Path 12" d="M119.57,481.44a.242.242,0,0,1,.205.1.625.625,0,0,1,.072.354.781.781,0,0,1-.043.325.126.126,0,0,1-.11.077h-1.416a.431.431,0,0,1-.325-.1.521.521,0,0,1-.086-.345c0-.274.1-.411.287-.411Z" transform="translate(-113.114 -475.262)" fill="#fff"/>
        <path id="Path_13" data-name="Path 13" d="M124.465,481.44a.242.242,0,0,1,.205.1.625.625,0,0,1,.072.354.781.781,0,0,1-.043.325.127.127,0,0,1-.11.077h-1.416a.431.431,0,0,1-.325-.1.521.521,0,0,1-.086-.345c0-.274.1-.411.287-.411Z" transform="translate(-116.594 -475.262)" fill="#fff"/>
        <path id="Path_14" data-name="Path 14" d="M127.9,473.256a2.2,2.2,0,0,0,.684-.086.819.819,0,0,0,.387-.253.9.9,0,0,0,.177-.417,3.393,3.393,0,0,0,.043-.573v-2h1.042v2.41a.85.85,0,0,0,.277.674,1.149,1.149,0,0,0,.785.244.244.244,0,0,1,.21.091.612.612,0,0,1,.067.339,1.264,1.264,0,0,1-.029.335c-.019.057-.051.086-.1.086a2.855,2.855,0,0,1-.421-.033,1.957,1.957,0,0,1-.425-.115,1.7,1.7,0,0,1-.378-.205,1.087,1.087,0,0,1-.287-.306,1.356,1.356,0,0,1-.7.5,3.781,3.781,0,0,1-1.191.158.527.527,0,0,1-.335-.091.4.4,0,0,1-.114-.33.6.6,0,0,1,.072-.306A.25.25,0,0,1,127.9,473.256Zm.488,2.19a.54.54,0,0,1,.162-.406.566.566,0,0,1,.411-.158.534.534,0,0,1,.4.158.559.559,0,0,1,.153.406.578.578,0,0,1-.153.411.526.526,0,0,1-.4.163.556.556,0,0,1-.574-.574Zm1.444,0a.54.54,0,0,1,.162-.406.565.565,0,0,1,.411-.158.533.533,0,0,1,.4.158.559.559,0,0,1,.153.406.578.578,0,0,1-.153.411.525.525,0,0,1-.4.163.556.556,0,0,1-.574-.574Z" transform="translate(-120.028 -467.078)" fill="#fff"/>
        <path id="Path_15" data-name="Path 15" d="M139.787,467.145a.561.561,0,0,1-.325-.086.37.37,0,0,1-.124-.325c0-.293.1-.44.306-.44h2.811a1.038,1.038,0,0,0,.784-.239,1.141,1.141,0,0,0,.22-.784v-.23a1.177,1.177,0,0,0-.33-.913,1.589,1.589,0,0,0-1.085-.3h-1.932v-.87l2.649-2.822.708.641-2.066,2.191h.927a3.14,3.14,0,0,1,.99.139,1.8,1.8,0,0,1,.679.387,1.521,1.521,0,0,1,.387.588,2.176,2.176,0,0,1,.124.751v.593a1.8,1.8,0,0,1-.406,1.324,1.817,1.817,0,0,1-1.306.4Z" transform="translate(-128.378 -460.115)" fill="#fff"/>
        <path id="Path_16" data-name="Path 16" d="M162.071,468.174a1.057,1.057,0,0,0,.794-.249,1.159,1.159,0,0,0,.21-.774v-.23a1.641,1.641,0,0,0-.072-.507.9.9,0,0,0-.239-.378,1.119,1.119,0,0,0-.449-.244,2.453,2.453,0,0,0-.7-.086h-.793v-.86h1.061a3.271,3.271,0,0,1,1.009.139,1.886,1.886,0,0,1,.7.387,1.517,1.517,0,0,1,.4.588,2.1,2.1,0,0,1,.129.751v.593a.827.827,0,0,0,.254.631.914.914,0,0,0,.655.239.219.219,0,0,1,.2.091.694.694,0,0,1,.058.339,1.1,1.1,0,0,1-.034.335c-.023.057-.049.086-.081.086a1.935,1.935,0,0,1-.736-.149,1.137,1.137,0,0,1-.555-.454,1.154,1.154,0,0,1-.555.459,2.444,2.444,0,0,1-.908.143h-2.2v-.852Zm-.995-4.83a.542.542,0,0,1,.162-.406.566.566,0,0,1,.411-.158.533.533,0,0,1,.4.158.561.561,0,0,1,.154.406.576.576,0,0,1-.154.411.525.525,0,0,1-.4.163.556.556,0,0,1-.574-.574Z" transform="translate(-143.221 -461.996)" fill="#fff"/>
        <path id="Path_17" data-name="Path 17" d="M176.081,466.247a1.173,1.173,0,0,0,.841-.239,1.062,1.062,0,0,0,.239-.774v-5.164H178.2v5.346a1.6,1.6,0,0,1-.478,1.281,2.24,2.24,0,0,1-1.5.4.58.58,0,0,1-.335-.086.37.37,0,0,1-.124-.325.732.732,0,0,1,.062-.3A.249.249,0,0,1,176.081,466.247Z" transform="translate(-154.275 -460.069)" fill="#fff"/>
        <path id="Path_18" data-name="Path 18" d="M190.273,460.069V467.1H189.23v-7.029Z" transform="translate(-163.848 -460.069)" fill="#fff"/>
      </g>
    </g>
  </g>
</svg>
