<svg id="Group_396" data-name="Group 396" xmlns="http://www.w3.org/2000/svg" xmlns:xlink="http://www.w3.org/1999/xlink" width="141.742" height="254.683" viewBox="0 0 141.742 254.683">
  <defs>
    <linearGradient id="linear-gradient" x1="0.642" y1="0.221" x2="0.039" y2="1.678" gradientUnits="objectBoundingBox">
      <stop offset="0" stop-color="#0090df"/>
      <stop offset="1" stop-color="#040506"/>
    </linearGradient>
  </defs>
  <g id="Group_393" data-name="Group 393">
    <rect id="Rectangle_55" data-name="Rectangle 55" width="141.742" height="254.683" rx="8.358" fill="#244d75"/>
    <path id="Rectangle_56" data-name="Rectangle 56" d="M7.487,0H125.36a7.487,7.487,0,0,1,7.487,7.487V210.556a7.486,7.486,0,0,1-7.486,7.486H7.486A7.486,7.486,0,0,1,0,210.556V7.487A7.487,7.487,0,0,1,7.487,0Z" transform="translate(4.448 10.893)" fill="#c4e4f5"/>
    <path id="Path_361" data-name="Path 361" d="M180.576,282.776V415.89a7.9,7.9,0,0,0,7.9,7.9H305.52a7.9,7.9,0,0,0,7.9-7.9V282.776Z" transform="translate(-176.128 -194.858)" fill="#d1a42e"/>
    <path id="Path_362" data-name="Path 362" d="M180.576,381.577V410.4a7.9,7.9,0,0,0,7.9,7.9H305.52a7.9,7.9,0,0,0,7.9-7.9V381.577Z" transform="translate(-176.128 -189.367)" fill="#c4e4f5"/>
    <rect id="Rectangle_57" data-name="Rectangle 57" width="132.847" height="118.585" transform="translate(4.448 25.894)" fill="#fff"/>
    <g id="Group_392" data-name="Group 392" transform="translate(63.259 234.779)">
      <g id="Group_391" data-name="Group 391">
        <path id="Path_363" data-name="Path 363" d="M250.666,428.421H237.139a.852.852,0,0,1-.849-.85h0a.851.851,0,0,1,.849-.849h13.527a.851.851,0,0,1,.849.849h0A.852.852,0,0,1,250.666,428.421Z" transform="translate(-236.29 -421.636)" fill="#fff"/>
        <path id="Path_364" data-name="Path 364" d="M250.666,423.6H237.139a.851.851,0,0,1-.849-.849h0a.852.852,0,0,1,.849-.85h13.527a.852.852,0,0,1,.849.85h0A.851.851,0,0,1,250.666,423.6Z" transform="translate(-236.29 -421.904)" fill="#fff"/>
        <path id="Path_365" data-name="Path 365" d="M250.666,433.239H237.139a.851.851,0,0,1-.849-.849h0a.852.852,0,0,1,.849-.85h13.527a.852.852,0,0,1,.849.85h0A.851.851,0,0,1,250.666,433.239Z" transform="translate(-236.29 -421.368)" fill="#fff"/>
      </g>
    </g>
    <path id="Path_366" data-name="Path 366" d="M233.556,199.488V211.06a10.5,10.5,0,1,0,21,0V199.488Z" transform="translate(-173.183 -199.488)" fill="#536785"/>
    <path id="Path_367" data-name="Path 367" d="M248.093,210.037a4.362,4.362,0,1,1-4.362-4.362A4.362,4.362,0,0,1,248.093,210.037Z" transform="translate(-172.86 -199.144)" fill="#cfeeff"/>
    <path id="Path_368" data-name="Path 368" d="M245.421,209.9a1.823,1.823,0,1,1-1.823-1.823A1.823,1.823,0,0,1,245.421,209.9Z" transform="translate(-172.727 -199.01)" fill="#fff"/>
    <g id="Group_1057" data-name="Group 1057" transform="translate(-37.933 -91.939)">
      <g id="Group_9" data-name="Group 9" transform="translate(72.199 151.449)">
        <g id="Group_7" data-name="Group 7" transform="translate(38.37)">
          <g id="Group_4" data-name="Group 4" transform="translate(0.296)">
            <path id="Path_4" data-name="Path 4" d="M353.319,184.436l-16.8.005a.684.684,0,0,1-.6-1.015l4.957-8.978.012-.007h12.258a6.5,6.5,0,1,0,.17-13h-16.81a.684.684,0,0,1-.6-1.016l4.576-8.261a1.394,1.394,0,0,1,1.219-.718h11.35a16.495,16.495,0,1,1,.264,32.987Z" transform="translate(-335.823 -151.449)" fill="#0090df"/>
          </g>
          <g id="Group_5" data-name="Group 5" transform="translate(0.3 16.389)">
            <path id="Path_5" data-name="Path 5" d="M359.837,263.2c0,.04,0,.08,0,.12a6.506,6.506,0,0,1-6.5,6.5H340.906l-4.972,9.005a.671.671,0,0,0,.587,1l16.82-.005A16.512,16.512,0,0,0,369.835,263.2l0,0Z" transform="translate(-335.85 -263.2)" fill="url(#linear-gradient)"/>
          </g>
          <g id="Group_6" data-name="Group 6" transform="translate(0 23.025)">
            <path id="Path_6" data-name="Path 6" d="M367.721,335.039,339.16,308.375l-5.273,9.55a.671.671,0,0,0,.122.807l17.742,17.077a1.4,1.4,0,0,0,.968.39h14.544A.671.671,0,0,0,367.721,335.039Z" transform="translate(-333.804 -308.375)" fill="#d1a42e"/>
          </g>
        </g>
        <g id="Group_8" data-name="Group 8" transform="translate(0 22.889)">
          <path id="Path_7" data-name="Path 7" d="M84.994,325.869a6.065,6.065,0,0,1-2.134,4.823,6.364,6.364,0,0,1-4.267,1.607,6.3,6.3,0,0,1-6.357-6.342V316.5H74.4v9.455a4.166,4.166,0,0,0,4.194,4.194,3.952,3.952,0,0,0,2.6-.921,3.9,3.9,0,0,1-1.476-.541,6.464,6.464,0,0,1-1.556-10.332,6.418,6.418,0,0,1,4.625-1.856h2.207Zm-2.207-.234V318.62a4.25,4.25,0,0,0-3.083,1.242,4.31,4.31,0,0,0,2.835,7.394A4.847,4.847,0,0,0,82.787,325.635Zm-.248-11.077A1.048,1.048,0,0,1,81.5,315.6a.974.974,0,0,1-.723-.307,1.009,1.009,0,0,1-.3-.731,1.023,1.023,0,0,1,1.023-1.023,1.01,1.01,0,0,1,.731.3A.974.974,0,0,1,82.539,314.558Zm2.514,0a1.048,1.048,0,0,1-1.038,1.037.973.973,0,0,1-.723-.307,1.009,1.009,0,0,1-.3-.731,1.023,1.023,0,0,1,1.023-1.023,1.01,1.01,0,0,1,.731.3A.975.975,0,0,1,85.052,314.558Z" transform="translate(-72.236 -312.644)" fill="#244d75"/>
          <path id="Path_8" data-name="Path 8" d="M175.88,324.2h-2.192V307.451h2.192Z" transform="translate(-158.824 -307.451)" fill="#244d75"/>
          <path id="Path_9" data-name="Path 9" d="M211.6,347.049a5.727,5.727,0,0,1-1.871,4.355l-1.651-1.447a4.229,4.229,0,0,0,1.3-3.2,5.91,5.91,0,0,1-4.432-1.9,6.531,6.531,0,0,1,.029-9.082,6.078,6.078,0,0,1,4.516-1.893H211.6Zm-2.221-2.44V336.03a3.794,3.794,0,0,0-2.835,1.351,4.244,4.244,0,0,0-.088,5.941A3.815,3.815,0,0,0,209.379,344.608Z" transform="translate(-183.947 -330.009)" fill="#244d75"/>
          <path id="Path_10" data-name="Path 10" d="M275.881,346.979a5.727,5.727,0,0,1-1.871,4.355l-1.651-1.447a4.4,4.4,0,0,0,1.315-3.361V333.783h2.207Z" transform="translate(-243.038 -329.925)" fill="#244d75"/>
        </g>
      </g>
      <g id="Group_11" data-name="Group 11" transform="translate(72.193 195.682)">
        <path id="Rectangle_2" data-name="Rectangle 2" d="M6.566,0H21.959a0,0,0,0,1,0,0V0a6.566,6.566,0,0,1-6.566,6.566H0a0,0,0,0,1,0,0v0A6.566,6.566,0,0,1,6.566,0Z" fill="#0090df"/>
        <g id="Group_10" data-name="Group 10" transform="translate(4.283 1.017)">
          <path id="Path_11" data-name="Path 11" d="M103.924,465.946a2.021,2.021,0,0,1-.511-.058.512.512,0,0,1-.327-.243,1.417,1.417,0,0,1-.259.092,1.621,1.621,0,0,1-.756,0,.894.894,0,0,1-.325-.155.822.822,0,0,1-.233-.286.965.965,0,0,1-.09-.439,1.13,1.13,0,0,1,.08-.439.872.872,0,0,1,.233-.325,1,1,0,0,1,.354-.2,1.448,1.448,0,0,1,.448-.065h.965v1.314a.357.357,0,0,0,.1.3.572.572,0,0,0,.337.075h.039a.125.125,0,0,1,.1.046.292.292,0,0,1,.036.172.75.75,0,0,1-.012.174.049.049,0,0,1-.051.039Zm-2.036-2.88a.274.274,0,0,1,.082-.206.286.286,0,0,1,.208-.08.271.271,0,0,1,.2.08.284.284,0,0,1,.078.206.292.292,0,0,1-.078.209.266.266,0,0,1-.2.082.282.282,0,0,1-.291-.291Zm.058,1.764a.532.532,0,0,0,.053.257.441.441,0,0,0,.133.153.465.465,0,0,0,.177.075.916.916,0,0,0,.179.019,1.172,1.172,0,0,0,.271-.024,1.112,1.112,0,0,0,.209-.078v-.974h-.407a1.052,1.052,0,0,0-.24.027.492.492,0,0,0-.2.092.453.453,0,0,0-.131.174A.687.687,0,0,0,101.947,464.83Zm.674-1.764a.275.275,0,0,1,.082-.206.287.287,0,0,1,.209-.08.27.27,0,0,1,.2.08.284.284,0,0,1,.078.206.292.292,0,0,1-.078.209.266.266,0,0,1-.2.082.282.282,0,0,1-.291-.291Z" transform="translate(-101.423 -462.383)" fill="#fff"/>
          <path id="Path_12" data-name="Path 12" d="M118.73,481.44a.123.123,0,0,1,.1.049.317.317,0,0,1,.036.179.4.4,0,0,1-.022.165.064.064,0,0,1-.056.039h-.718a.218.218,0,0,1-.165-.048.264.264,0,0,1-.044-.175c0-.139.048-.208.145-.208Z" transform="translate(-115.458 -478.309)" fill="#fff"/>
          <path id="Path_13" data-name="Path 13" d="M123.625,481.44a.123.123,0,0,1,.1.049.317.317,0,0,1,.036.179.4.4,0,0,1-.022.165.064.064,0,0,1-.056.039h-.718a.218.218,0,0,1-.165-.048.264.264,0,0,1-.044-.175c0-.139.049-.208.145-.208Z" transform="translate(-119.635 -478.309)" fill="#fff"/>
          <path id="Path_14" data-name="Path 14" d="M127.748,471.615a1.115,1.115,0,0,0,.347-.043.415.415,0,0,0,.2-.128.456.456,0,0,0,.09-.211,1.72,1.72,0,0,0,.022-.291v-1.013h.528v1.222a.431.431,0,0,0,.141.341.582.582,0,0,0,.4.124.124.124,0,0,1,.107.046.31.31,0,0,1,.034.172.641.641,0,0,1-.015.17c-.01.029-.026.044-.049.044a1.447,1.447,0,0,1-.213-.017.99.99,0,0,1-.216-.059.861.861,0,0,1-.191-.1.551.551,0,0,1-.145-.155.687.687,0,0,1-.356.255,1.917,1.917,0,0,1-.6.08.267.267,0,0,1-.17-.046.2.2,0,0,1-.058-.167.305.305,0,0,1,.036-.155A.127.127,0,0,1,127.748,471.615Zm.247,1.11a.273.273,0,0,1,.082-.206.287.287,0,0,1,.208-.08.271.271,0,0,1,.2.08.283.283,0,0,1,.078.206.293.293,0,0,1-.078.209.266.266,0,0,1-.2.082.282.282,0,0,1-.291-.291Zm.732,0a.273.273,0,0,1,.082-.206.287.287,0,0,1,.208-.08.27.27,0,0,1,.2.08.283.283,0,0,1,.077.206.293.293,0,0,1-.077.209.266.266,0,0,1-.2.082.282.282,0,0,1-.291-.291Z" transform="translate(-123.759 -468.483)" fill="#fff"/>
          <path id="Path_15" data-name="Path 15" d="M139.566,463.687a.284.284,0,0,1-.165-.044.187.187,0,0,1-.063-.165c0-.149.052-.223.155-.223h1.425a.526.526,0,0,0,.4-.121.578.578,0,0,0,.111-.4v-.116a.6.6,0,0,0-.167-.463.806.806,0,0,0-.55-.153h-.979v-.441l1.343-1.43.359.325-1.047,1.11h.47a1.591,1.591,0,0,1,.5.07.911.911,0,0,1,.344.2.771.771,0,0,1,.2.3,1.1,1.1,0,0,1,.063.381v.3a.911.911,0,0,1-.206.671.921.921,0,0,1-.662.2Z" transform="translate(-133.783 -460.125)" fill="#fff"/>
          <path id="Path_16" data-name="Path 16" d="M161.156,465.514a.536.536,0,0,0,.4-.126.588.588,0,0,0,.107-.392v-.116a.831.831,0,0,0-.036-.257.454.454,0,0,0-.121-.191.567.567,0,0,0-.228-.124,1.243,1.243,0,0,0-.356-.044h-.4v-.436h.538a1.658,1.658,0,0,1,.511.07.956.956,0,0,1,.354.2.769.769,0,0,1,.2.3,1.066,1.066,0,0,1,.065.381v.3a.419.419,0,0,0,.128.32.464.464,0,0,0,.332.121.111.111,0,0,1,.1.046.352.352,0,0,1,.029.172.556.556,0,0,1-.017.17c-.011.029-.025.044-.041.044a.98.98,0,0,1-.373-.075.576.576,0,0,1-.281-.23.585.585,0,0,1-.281.233,1.239,1.239,0,0,1-.46.073h-1.115v-.432Zm-.5-2.448a.275.275,0,0,1,.082-.206.287.287,0,0,1,.208-.08.27.27,0,0,1,.2.08.284.284,0,0,1,.078.206.292.292,0,0,1-.078.209.266.266,0,0,1-.2.082.282.282,0,0,1-.291-.291Z" transform="translate(-151.602 -462.383)" fill="#fff"/>
          <path id="Path_17" data-name="Path 17" d="M175.925,463.2a.6.6,0,0,0,.427-.121.538.538,0,0,0,.121-.393v-2.618H177v2.71a.812.812,0,0,1-.242.65,1.135,1.135,0,0,1-.761.2.294.294,0,0,1-.17-.044.188.188,0,0,1-.063-.165.371.371,0,0,1,.031-.153A.126.126,0,0,1,175.925,463.2Z" transform="translate(-164.873 -460.069)" fill="#fff"/>
          <path id="Path_18" data-name="Path 18" d="M189.758,460.069v3.563h-.528v-3.563Z" transform="translate(-176.365 -460.069)" fill="#fff"/>
        </g>
      </g>
    </g>
  </g>
  <g id="Group_394" data-name="Group 394" transform="translate(28.85 199.487)">
    <rect id="Rectangle_58" data-name="Rectangle 58" width="84.042" height="19.354" rx="3.129" fill="#244d75"/>
  </g>
  <g id="Group_395" data-name="Group 395" transform="translate(14.39 151.506)">
    <rect id="Rectangle_59" data-name="Rectangle 59" width="32.173" height="32.173" rx="2.649" fill="#fff"/>
    <rect id="Rectangle_60" data-name="Rectangle 60" width="32.173" height="32.173" rx="2.649" transform="translate(80.79)" fill="#fff"/>
    <rect id="Rectangle_61" data-name="Rectangle 61" width="32.173" height="32.173" rx="2.649" transform="translate(40.394)" fill="#fff"/>
  </g>
</svg>
