<svg xmlns="http://www.w3.org/2000/svg" width="70.173" height="68.578" viewBox="0 0 70.173 68.578">
  <path id="Path_1902" data-name="Path 1902" d="M88.673,24.785V58.276a4.785,4.785,0,0,1-4.785,4.784H50.4a4.785,4.785,0,0,1-4.784-4.784V24.785A4.785,4.785,0,0,1,50.4,20H83.888A4.785,4.785,0,0,1,88.673,24.785ZM42.422,59.871V42.328a3.19,3.19,0,0,0-3.19-3.19H23.284A4.784,4.784,0,0,0,18.5,43.922V59.871a3.19,3.19,0,0,0,3.19,3.19H39.233A3.19,3.19,0,0,0,42.422,59.871Zm3.19,9.569V85.388a3.19,3.19,0,0,0,3.19,3.19H64.75a4.785,4.785,0,0,0,4.785-4.784V69.44a3.19,3.19,0,0,0-3.19-3.19H48.8A3.19,3.19,0,0,0,45.612,69.44Zm-6.379-3.19H21.69a3.19,3.19,0,0,0-3.19,3.19V83.793a4.785,4.785,0,0,0,4.784,4.784H39.233a3.19,3.19,0,0,0,3.19-3.19V69.44A3.19,3.19,0,0,0,39.233,66.25Z" transform="translate(-18.5 -20)" fill="#d1a42e"/>
</svg>
