<svg xmlns="http://www.w3.org/2000/svg" width="81.967" height="63.938" viewBox="0 0 81.967 63.938">
  <path id="Path_1912" data-name="Path 1912" d="M53.984,31.483a59.61,59.61,0,0,0-10.164.869L32,23.811a1.639,1.639,0,0,0-2.6,1.3l-.231,12.064C19.021,42.434,13,50.715,13,59.459c0,15.426,18.385,27.977,40.984,27.977S94.967,74.885,94.967,59.459,76.582,31.483,53.984,31.483Zm19.672,41.2H34.311a1.639,1.639,0,0,1,0-3.279H73.656a1.639,1.639,0,0,1,0,3.279Zm0-11.475H34.311a1.639,1.639,0,0,1,0-3.279H73.656a1.639,1.639,0,0,1,0,3.279Zm0-11.475H34.311a1.639,1.639,0,0,1,0-3.279H73.656a1.639,1.639,0,0,1,0,3.279Z" transform="translate(-13 -23.498)" fill="#d1a42e"/>
</svg>
