<svg xmlns="http://www.w3.org/2000/svg" width="80.377" height="80.377" viewBox="0 0 80.377 80.377">
  <path id="Path_1909" data-name="Path 1909" d="M75.95,34.856A35.454,35.454,0,0,0,47.508,6.414a6.4,6.4,0,0,0-12.653,0A35.454,35.454,0,0,0,6.414,34.864a6.4,6.4,0,0,0,0,12.653,35.454,35.454,0,0,0,28.45,28.45,6.4,6.4,0,0,0,12.653,0,35.454,35.454,0,0,0,28.45-28.441,6.4,6.4,0,0,0,0-12.653ZM41.182,4.214A3.215,3.215,0,0,1,44.4,7.428l-.013.235a3.215,3.215,0,0,1-6.4,0,1.427,1.427,0,0,0-.013-.235,3.215,3.215,0,0,1,3.215-3.215ZM7.428,44.4a3.215,3.215,0,0,1,0-6.429l.235.013a3.215,3.215,0,0,1,0,6.4c-.04,0-.2.013-.235.013ZM41.182,78.15a3.215,3.215,0,0,1-3.215-3.215l.013-.235a3.214,3.214,0,0,1,6.416.108v.127A3.215,3.215,0,0,1,41.182,78.15Zm6.053-5.389a6.429,6.429,0,0,0-12.106,0A32.267,32.267,0,0,1,9.6,47.235a6.429,6.429,0,0,0,0-12.106A32.267,32.267,0,0,1,35.129,9.6a6.429,6.429,0,0,0,12.106,0A32.267,32.267,0,0,1,72.761,35.129a6.429,6.429,0,0,0,0,12.106A32.267,32.267,0,0,1,47.235,72.761ZM74.936,44.4l-.235-.013a3.215,3.215,0,0,1,0-6.4,1.427,1.427,0,0,0,.235-.013,3.215,3.215,0,0,1,0,6.429Z" transform="translate(-1.002 -1.002)" fill="#244d75"/>
</svg>
