<svg xmlns="http://www.w3.org/2000/svg" width="70.173" height="82.931" viewBox="0 0 70.173 82.931">
  <path id="Path_1903" data-name="Path 1903" d="M6.284,83.931H47.75a4.784,4.784,0,0,0,4.785-4.784V52.035H66.888a4.785,4.785,0,0,0,4.785-4.785V24.922a4.785,4.785,0,0,0-4.785-4.784H52.535V5.784A4.784,4.784,0,0,0,47.75,1H6.284A4.784,4.784,0,0,0,1.5,5.784V79.147a4.785,4.785,0,0,0,4.784,4.785Zm41.466-3.19H6.284A1.6,1.6,0,0,1,4.69,79.147V74.362H49.345v4.785A1.6,1.6,0,0,1,47.75,80.742ZM68.483,24.922V47.25a1.6,1.6,0,0,1-1.595,1.595H25.422a1.6,1.6,0,0,1-1.595-1.595V24.922a1.6,1.6,0,0,1,1.595-1.595H66.888A1.6,1.6,0,0,1,68.483,24.922Zm-43.06-4.784a4.784,4.784,0,0,0-4.784,4.784V47.25a4.784,4.784,0,0,0,4.784,4.785H49.345V71.173H4.69V13.759H49.345v6.379ZM6.284,4.19H47.75a1.6,1.6,0,0,1,1.595,1.595v4.784H4.69V5.784A1.6,1.6,0,0,1,6.284,4.19ZM39.776,29.707H33.4a3.19,3.19,0,0,0-3.19,3.19v6.379a3.19,3.19,0,0,0,3.19,3.19h6.379a3.19,3.19,0,0,0,3.19-3.19V32.9A3.19,3.19,0,0,0,39.776,29.707ZM33.4,39.276V32.9h6.379v6.379ZM47.75,29.707H60.509a1.595,1.595,0,0,1,0,3.19H47.75a1.595,1.595,0,0,1,0-3.19ZM62.1,37.681a1.6,1.6,0,0,1-1.595,1.595H47.75a1.595,1.595,0,1,1,0-3.19H60.509A1.6,1.6,0,0,1,62.1,37.681Z" transform="translate(-1.5 -1)" fill="#244d75"/>
</svg>
