<svg id="Group_1036" data-name="Group 1036" xmlns="http://www.w3.org/2000/svg" width="80.366" height="80.651" viewBox="0 0 80.366 80.651">
  <circle id="Ellipse_34" data-name="Ellipse 34" cx="8" cy="8" r="8" transform="translate(6.715 42)" fill="#d1a42e"/>
  <path id="Path_1904" data-name="Path 1904" d="M27.466,51A14.482,14.482,0,0,0,13,65.466a4.822,4.822,0,0,0,4.822,4.822H37.11a4.822,4.822,0,0,0,4.822-4.822A14.482,14.482,0,0,0,27.466,51Z" transform="translate(-13 10.363)" fill="#d1a42e"/>
  <circle id="Ellipse_35" data-name="Ellipse 35" cx="8" cy="8" r="8" transform="translate(57.715 42)" fill="#d1a42e"/>
  <path id="Path_1905" data-name="Path 1905" d="M59.466,51A14.482,14.482,0,0,0,45,65.466a4.822,4.822,0,0,0,4.822,4.822H69.11a4.822,4.822,0,0,0,4.822-4.822A14.482,14.482,0,0,0,59.466,51Z" transform="translate(6.434 10.363)" fill="#d1a42e"/>
  <circle id="Ellipse_36" data-name="Ellipse 36" cx="8" cy="8" r="8" transform="translate(57.715)" fill="#d1a42e"/>
  <path id="Path_1906" data-name="Path 1906" d="M49.822,44.288H69.11a4.822,4.822,0,0,0,4.822-4.822,14.466,14.466,0,1,0-28.932,0A4.822,4.822,0,0,0,49.822,44.288Z" transform="translate(6.434 -5.427)" fill="#d1a42e"/>
  <path id="Path_1907" data-name="Path 1907" d="M47.466,57H34.607a1.607,1.607,0,1,0,0,3.215H47.466a1.607,1.607,0,1,0,0-3.215Z" transform="translate(-0.854 14.007)" fill="#d1a42e"/>
  <path id="Path_1908" data-name="Path 1908" d="M47.466,27H34.607a1.607,1.607,0,1,0,0,3.215H47.466a1.607,1.607,0,1,0,0-3.215Z" transform="translate(-0.854 -4.212)" fill="#d1a42e"/>
</svg>
