<svg xmlns="http://www.w3.org/2000/svg" width="81.967" height="80.328" viewBox="0 0 81.967 80.328">
  <path id="Path_1913" data-name="Path 1913" d="M1,42.484v8.2a11.485,11.485,0,0,0,9.836,11.344v.131c0,9.039,7.354,14.754,16.393,14.754H32.38A6.557,6.557,0,0,0,38.7,81.828h6.557a6.557,6.557,0,1,0,0-13.115H38.7a6.557,6.557,0,0,0-6.325,4.918H27.23c-7.231,0-13.115-4.244-13.115-11.475h3.279a6.557,6.557,0,0,0,13.115,0V31.008a6.557,6.557,0,1,0-13.115,0H15.754a26.23,26.23,0,1,1,52.459,0H66.574a6.557,6.557,0,1,0-13.115,0V62.156a6.557,6.557,0,0,0,13.115,0h4.918A11.489,11.489,0,0,0,82.967,50.68v-8.2A11.489,11.489,0,0,0,71.492,31.008a29.508,29.508,0,0,0-59.016,0A11.489,11.489,0,0,0,1,42.484ZM63.3,62.156a3.279,3.279,0,0,1-6.557,0V31.008a3.279,3.279,0,1,1,6.557,0Zm8.2-27.869a8.207,8.207,0,0,1,8.2,8.2v8.2a8.207,8.207,0,0,1-8.2,8.2H66.574V34.287ZM35.426,75.27A3.279,3.279,0,0,1,38.7,71.992h6.557a3.279,3.279,0,1,1,0,6.557H38.7A3.279,3.279,0,0,1,35.426,75.27ZM20.672,31.008a3.279,3.279,0,1,1,6.557,0V62.156a3.279,3.279,0,0,1-6.557,0ZM4.279,42.484a8.207,8.207,0,0,1,8.2-8.2h4.918v24.59H12.475a8.207,8.207,0,0,1-8.2-8.2Z" transform="translate(-1 -1.5)" fill="#244d75"/>
</svg>
