<svg xmlns="http://www.w3.org/2000/svg" width="24.121" height="25" viewBox="0 0 24.121 25">
  <g id="pdf-file" transform="translate(0 0)">
    <path id="Path_7037" data-name="Path 7037" d="M83.265,209H81.727a.727.727,0,0,0-.727.729l.011,5.522a.727.727,0,1,0,1.454,0v-1.677l.8,0a2.286,2.286,0,1,0,0-4.572Zm0,3.118-.8,0c0-.309,0-.643,0-.835,0-.164,0-.509,0-.832h.809a.833.833,0,1,1,0,1.664Z" transform="translate(-77.511 -198.765)" fill="#fff"/>
    <path id="Path_7038" data-name="Path 7038" d="M211.245,209h-1.518a.727.727,0,0,0-.727.728s.011,5.343.011,5.362a.727.727,0,0,0,.727.724h0c.046,0,1.129,0,1.562-.012,1.643-.029,2.835-1.457,2.835-3.4C214.137,210.369,212.975,209,211.245,209Zm.032,5.349c-.188,0-.512.006-.815.008,0-.631-.006-3.247-.007-3.9h.79c1.334,0,1.438,1.5,1.438,1.953C212.683,213.362,212.248,214.332,211.277,214.349Z" transform="translate(-199.214 -198.766)" fill="#fff"/>
    <path id="Path_7039" data-name="Path 7039" d="M355.949,209.3a.727.727,0,1,0,0-1.454h-2.223a.727.727,0,0,0-.727.727v5.484a.727.727,0,0,0,1.454,0v-2.067h1.319a.727.727,0,1,0,0-1.454h-1.319V209.3Z" transform="translate(-336.18 -197.664)" fill="#fff"/>
    <path id="Path_7040" data-name="Path 7040" d="M30.924,7.08h-.537V6.871a3.648,3.648,0,0,0-1-2.52L26.34,1.143A3.678,3.678,0,0,0,23.682,0H13.932a2.2,2.2,0,0,0-2.2,2.2V7.08H11.2A2.2,2.2,0,0,0,9,9.277v8.789a2.2,2.2,0,0,0,2.2,2.2h.537V22.8a2.2,2.2,0,0,0,2.2,2.2H28.189a2.2,2.2,0,0,0,2.2-2.2V20.264h.537a2.2,2.2,0,0,0,2.2-2.2V9.277A2.2,2.2,0,0,0,30.924,7.08ZM13.2,2.2a.733.733,0,0,1,.732-.732h9.751a2.206,2.206,0,0,1,1.595.686l3.042,3.209a2.188,2.188,0,0,1,.6,1.512V7.08H13.2ZM28.922,22.8a.733.733,0,0,1-.732.732H13.932A.733.733,0,0,1,13.2,22.8V20.264H28.922Zm2.734-4.736a.733.733,0,0,1-.732.732H11.2a.733.733,0,0,1-.732-.732V9.277a.733.733,0,0,1,.732-.732H30.924a.733.733,0,0,1,.732.732Z" transform="translate(-9 0)" fill="#fff"/>
  </g>
</svg>
