<svg id="Group_421" data-name="Group 421" xmlns="http://www.w3.org/2000/svg" width="506.998" height="311.402" viewBox="0 0 506.998 311.402">
  <g id="Group_420" data-name="Group 420">
    <g id="Group_408" data-name="Group 408">
      <g id="Group_407" data-name="Group 407">
        <path id="Path_369" data-name="Path 369" d="M559.215,462.44,298.78,310.842l-153.45,88.6.074,27.211,153.457-88.593,260.432,151.6Z" transform="translate(-100.15 -284.63)" fill="#2a3244"/>
        <g id="Group_402" data-name="Group 402" transform="translate(45.18 114.807)">
          <path id="Path_370" data-name="Path 370" d="M145.33,428.619l.074,27.211,236.76,137.586-.075-27.211Z" transform="translate(-145.33 -428.619)" fill="gray"/>
        </g>
        <g id="Group_404" data-name="Group 404" transform="translate(45.18 27.605)">
          <g id="Group_403" data-name="Group 403">
            <path id="Path_371" data-name="Path 371" d="M145.33,401.294,405.807,552.837l153.447-88.591L298.78,312.694Z" transform="translate(-145.33 -312.694)" fill="#009fe3"/>
          </g>
        </g>
        <g id="Group_406" data-name="Group 406" transform="translate(90.108 42.135)">
          <g id="Group_405" data-name="Group 405">
            <path id="Path_372" data-name="Path 372" d="M538.376,596.1h28.145V439.068l-28.145-16.376Z" transform="translate(-287.642 -354.478)" fill="#fff" opacity="0.25"/>
            <path id="Path_373" data-name="Path 373" d="M426.12,553.1h7.04V361.474l-7.04-4.1Z" transform="translate(-259.829 -338.296)" fill="#fff" opacity="0.1"/>
            <path id="Path_374" data-name="Path 374" d="M247.511,467.65H205.056V387.919L247.511,363.4Z" transform="translate(-205.056 -339.788)" fill="#fff" opacity="0.25"/>
            <path id="Path_375" data-name="Path 375" d="M311.056,509.225,296.44,484.543V340.448l14.616-8.438Z" transform="translate(-227.698 -332.01)" fill="#fff" opacity="0.25"/>
          </g>
        </g>
        <path id="Path_376" data-name="Path 376" d="M592.282,516.123q-.018-6.545-.033-13.09c.011,4.151-2.727,8.313-8.216,11.475l-167.4,68.76c-12.059,6.966,5.816,30.178-34.1,6.611L93.37,421.835c-5.163-3-7.824-6.9-8.041-10.828,0,1.421.005,2.839.013,4.264a.843.843,0,0,1-.013-.095q.019,6.047.034,12.093c.01,4.1,2.7,8.192,8.089,11.321l304.3,177.54c10.837,6.294,28.469,6.294,39.372,0L584.11,531.273c5.263-3.041,7.973-6.995,8.172-10.977,0-1.363-.007-2.719-.012-4.082C592.272,516.187,592.282,516.154,592.282,516.123Z" transform="translate(-85.283 -309.448)" fill="#e4e5e6"/>
        <path id="Path_377" data-name="Path 377" d="M93.355,388.383l304.31,177.535c10.833,6.3,28.462,6.3,39.368,0l146.984-84.862c10.9-6.29,10.963-16.5.131-22.8L279.839,280.714c-10.834-6.29-28.464-6.29-39.369,0L93.484,365.579C82.58,371.876,82.522,382.089,93.355,388.383Zm37.093,2.421,153.45-88.6L544.292,454.035,390.843,542.626Z" transform="translate(-85.268 -275.997)" fill="#244d75"/>
        <path id="Path_378" data-name="Path 378" d="M663.861,602.81l-.362-6.182-28.463,16.45.219,6.184Z" transform="translate(-221.484 -355.439)" fill="#58698f"/>
        <path id="Path_379" data-name="Path 379" d="M663.861,603.657l-5.018-3.612-23.807,13.88.219,6.184Z" transform="translate(-221.484 -356.286)" fill="#3f4b66"/>
      </g>
      <path id="Path_380" data-name="Path 380" d="M634.715,571.261c-7.977-4.625-20.971-4.6-29,.026s-8.108,12.161-.133,16.8c8.013,4.653,21.008,4.635,29.036,0S642.728,575.925,634.715,571.261Zm-2.122,15.647c-6.9,3.986-18.075,4-24.96,0-6.858-3.987-6.793-10.458.111-14.444s18.072-4,24.932-.02C639.565,576.45,639.493,582.922,632.593,586.909Z" transform="translate(-212.716 -348.298)" fill="#2a3244"/>
    </g>
    <path id="Path_381" data-name="Path 381" d="M205.237,359.451a1.4,1.4,0,0,0,1.911.509l22.089-12.826a1.394,1.394,0,1,0-1.4-2.41l-22.088,12.827A1.393,1.393,0,0,0,205.237,359.451Z" transform="translate(-114.947 -292.979)" fill="#fff"/>
    <g id="Group_409" data-name="Group 409" transform="translate(68.197 77.874)">
      <path id="Path_382" data-name="Path 382" d="M182.965,380.219c1.623.936,1.618,2.452.02,3.379a6.4,6.4,0,0,1-5.839,0c-1.61-.925-1.631-2.443-.017-3.379A6.443,6.443,0,0,1,182.965,380.219Z" transform="translate(-175.929 -379.521)" fill="#073649"/>
    </g>
    <g id="Group_410" data-name="Group 410" transform="translate(102.14 47.531)">
      <path id="Path_383" data-name="Path 383" d="M224.792,339.556a1.105,1.105,0,0,1,.648.9c-.008.7-.984,1.272-2.182,1.272a3.179,3.179,0,0,1-1.561-.373,1.11,1.11,0,0,1-.646-.9c0-.689.973-1.259,2.179-1.268A3.177,3.177,0,0,1,224.792,339.556Z" transform="translate(-221.051 -339.183)" fill="#073649"/>
    </g>
    <g id="Group_413" data-name="Group 413" transform="translate(33.417 135.624)">
      <g id="Group_412" data-name="Group 412" style="isolation: isolate">
        <path id="Path_384" data-name="Path 384" d="M144.178,463.815a4.262,4.262,0,0,0-.658-1.043,3.2,3.2,0,0,0-.756-.633l-9.713-5.609a1.218,1.218,0,0,0-1.225-.124l-1.472.858a1.22,1.22,0,0,1,1.225.121l9.718,5.606a3.269,3.269,0,0,1,.752.637,4.055,4.055,0,0,1,.659,1.039,3.215,3.215,0,0,1,.3,1.295,1.188,1.188,0,0,1-.5,1.088l1.471-.856a1.187,1.187,0,0,0,.492-1.088A3.2,3.2,0,0,0,144.178,463.815Z" transform="translate(-129.856 -456.293)" fill="#3c4454"/>
        <g id="Group_411" data-name="Group 411" transform="translate(0 0.856)">
          <path id="Path_385" data-name="Path 385" d="M141.132,463.274a3.775,3.775,0,0,1,1.709,2.971c0,1.084-.776,1.508-1.721.964L131.4,461.6a3.752,3.752,0,0,1-1.711-2.95c0-1.1.779-1.525,1.722-.979Z" transform="translate(-129.692 -457.431)" fill="#19202b"/>
        </g>
      </g>
    </g>
    <g id="Group_416" data-name="Group 416" transform="translate(59.051 150.407)">
      <g id="Group_415" data-name="Group 415" style="isolation: isolate">
        <path id="Path_386" data-name="Path 386" d="M190.089,490.3a4.027,4.027,0,0,0-.665-1.051,2.927,2.927,0,0,0-.747-.628l-21.548-12.44a1.2,1.2,0,0,0-1.219-.119l-1.47.852a1.216,1.216,0,0,1,1.222.118l21.546,12.444a2.964,2.964,0,0,1,.745.625,4.2,4.2,0,0,1,.669,1.05,3.257,3.257,0,0,1,.3,1.287,1.2,1.2,0,0,1-.5,1.1l1.47-.852a1.2,1.2,0,0,0,.5-1.1A3.206,3.206,0,0,0,190.089,490.3Z" transform="translate(-163.935 -475.944)" fill="#3c4454"/>
        <g id="Group_414" data-name="Group 414" transform="translate(0 0.852)">
          <path id="Path_387" data-name="Path 387" d="M187.042,489.756a3.783,3.783,0,0,1,1.712,2.962c0,1.084-.78,1.526-1.725.982l-21.547-12.444a3.79,3.79,0,0,1-1.713-2.963c0-1.085.779-1.529,1.726-.982Z" transform="translate(-163.769 -477.077)" fill="#19202b"/>
        </g>
      </g>
    </g>
    <g id="Group_419" data-name="Group 419" transform="translate(90.011 167.997)">
      <g id="Group_418" data-name="Group 418" style="isolation: isolate">
        <path id="Path_388" data-name="Path 388" d="M231.245,513.685a4,4,0,0,0-.665-1.052,2.969,2.969,0,0,0-.747-.626l-21.549-12.445a1.213,1.213,0,0,0-1.219-.118l-1.471.857a1.2,1.2,0,0,1,1.222.119l21.547,12.437a3.024,3.024,0,0,1,.746.63,4.073,4.073,0,0,1,.668,1.053,3.271,3.271,0,0,1,.3,1.28,1.2,1.2,0,0,1-.5,1.1l1.471-.855a1.193,1.193,0,0,0,.5-1.1A3.208,3.208,0,0,0,231.245,513.685Z" transform="translate(-205.092 -499.329)" fill="#3c4454"/>
        <g id="Group_417" data-name="Group 417" transform="translate(0 0.856)">
          <path id="Path_389" data-name="Path 389" d="M228.2,513.14a3.789,3.789,0,0,1,1.714,2.963c-.007,1.088-.782,1.529-1.726.982l-21.548-12.438a3.787,3.787,0,0,1-1.711-2.964c0-1.084.776-1.529,1.724-.979Z" transform="translate(-204.927 -500.467)" fill="#19202b"/>
        </g>
      </g>
    </g>
  </g>
</svg>
