<svg xmlns="http://www.w3.org/2000/svg" width="26.857" height="30" viewBox="0 0 26.857 30">
  <path id="play-store" d="M36.615,12.861,14.682.324A2.458,2.458,0,0,0,13.462,0h-.025c-.057,0-.113,0-.169.008l-.076.008q-.066.007-.132.018l-.048.007h0A2.459,2.459,0,0,0,11,2.462V27.538a2.459,2.459,0,0,0,2.014,2.42h0l.043.006q.07.012.141.02l.071.007c.056,0,.111.007.167.008h.028a2.458,2.458,0,0,0,1.22-.324L36.615,17.138A2.462,2.462,0,0,0,37.855,15h0A2.462,2.462,0,0,0,36.615,12.861Zm-8.674-2.49-2.181,2.861L20.212,5.953Zm7.611,4.907-15.34,8.769,9.6-12.6,5.735,3.278a.319.319,0,0,1,0,.554Z" transform="translate(-10.998)" fill="#fff"/>
</svg>
