<svg xmlns="http://www.w3.org/2000/svg" width="70" height="70" viewBox="0 0 70 70">
  <path id="Icon" d="M38.481,70H31.8a4.328,4.328,0,0,1-1.065-.1c-2.032-.441-2.8-1.151-4.7-5.642l-.309-.737-1.191-2.949-.091-.038-2.224,1c-3.423,1.507-5.044,2.041-6.193,2.041a4.788,4.788,0,0,1-2.911-1.008l-.4-.35L7.976,57.484l-.542-.592c-1.268-1.493-1.4-2.626.23-6.8L8.5,48.045l1.017-2.388-.022-.05-2.3-.857c-4.729-1.8-6.046-2.587-6.71-4.029L.3,40.258l-.151-.514a3.816,3.816,0,0,1-.139-.829L0,38.475V31.793a4.231,4.231,0,0,1,.135-1.222c.447-1.777,1.112-2.565,4.394-4.036l1.377-.6,3.534-1.427.025-.06L8.143,21.539C5.969,16.6,5.786,15.075,7.16,13.392l.186-.221.447-.473,4.725-4.713a4.737,4.737,0,0,1,3.308-1.361,13.23,13.23,0,0,1,4.152,1.106l2.038.81,2.312.967.095-.038.866-2.328C27.373,1.666,28.141.614,30.426.1a4.08,4.08,0,0,1,.715-.1h7.431a3.606,3.606,0,0,1,.7.1c2.033.441,2.8,1.151,4.7,5.639l.309.737,1.188,2.946.1.038,1.531-.693A28.252,28.252,0,0,1,53.3,6.471l.239-.032.435-.022a4.8,4.8,0,0,1,2.914,1.008l.381.343,4.75,4.732.331.35C63.827,14.475,64,15.6,62.33,19.9l-.548,1.37-1.295,3.062.025.06L63.476,25.5l1.427.564c3.712,1.516,4.458,2.329,4.946,4.162a3.919,3.919,0,0,1,.148.942l0,.343v6.679a4.263,4.263,0,0,1-.132,1.21c-.491,1.972-1.208,2.719-5.657,4.6l-.734.306-2.923,1.181-.019.047,1.055,2.312c2.589,5.752,2.738,7.1,1,9.048l-.217.236L57.491,62a4.752,4.752,0,0,1-3.317,1.367c-1.006,0-2.56-.458-5.365-1.581l-1.462-.6-1.67-.706-.095.038-.863,2.312c-2.075,5.466-2.776,6.45-5,7.022a3.625,3.625,0,0,1-.81.132ZM24.362,53.214a3.514,3.514,0,0,1,.936.127l.4.139,2.882,1.191a3.5,3.5,0,0,1,1.767,1.613l.17.375.715,1.811,1.024,2.486.589,1.355.321.69h3.915l.558-1.317.728-1.862,1.184-3.176a3.491,3.491,0,0,1,1.572-1.827l.372-.18,2.87-1.188a3.52,3.52,0,0,1,1.336-.263,3.465,3.465,0,0,1,.91.122l.435.148L49.752,54.6l1.972.8,1.08.416.712.258,2.769-2.763L55.752,52l-.8-1.827-1.418-3.087a3.529,3.529,0,0,1-.211-2.344l.154-.457,1.172-2.838a3.508,3.508,0,0,1,1.569-1.742l.365-.173,3.222-1.295,1.647-.69.45-.2,1.1-.5V32.9l-1.1-.469-1.487-.589-3.752-1.4A3.5,3.5,0,0,1,54.8,28.863l-.183-.378L53.45,25.631a3.533,3.533,0,0,1-.129-2.278l.158-.441,1.087-2.542.008-.02c.282-.675.523-1.253.732-1.773l.381-.964.416-1.125-2.766-2.757-.825.324c-.475.193-1,.417-1.572.665l-.614.271-3.232,1.465a3.467,3.467,0,0,1-1.457.318,3.526,3.526,0,0,1-.874-.11l-.457-.154-2.882-1.185a3.5,3.5,0,0,1-1.755-1.581l-.17-.369-1.017-2.549-.74-1.786-.41-.951-.5-1.1h-3.9l-.548,1.292c-.205.5-.424,1.061-.712,1.805l-1.219,3.264a3.51,3.51,0,0,1-1.559,1.811l-.369.18-2.867,1.194a3.5,3.5,0,0,1-2.271.145l-.441-.154L19.549,15.1l-1.833-.731-1.232-.454-2.766,2.76.328.822c.126.309.271.655.438,1.043l.564,1.276,1.414,3.094a3.511,3.511,0,0,1,.211,2.338l-.154.457-1.172,2.848a3.5,3.5,0,0,1-1.584,1.755l-.365.17L9.589,32.007l-1.9.816L7,33.141v3.954l.822.356c.322.136.665.277,1.049.428l1.3.5,3.153,1.172a3.5,3.5,0,0,1,1.865,1.578l.186.378,1.172,2.842a3.523,3.523,0,0,1,.132,2.284l-.158.444-1.361,3.194-.854,2.1L13.892,53.5l2.766,2.763.825-.324c.3-.123.636-.261,1-.416L21.02,54.4l1.833-.844A3.523,3.523,0,0,1,24.362,53.214ZM35,49a14,14,0,1,1,14-14A14.018,14.018,0,0,1,35,49Zm0-21a7,7,0,1,0,7,7A7.008,7.008,0,0,0,35,28Z" fill="#fff"/>
</svg>
