<svg xmlns="http://www.w3.org/2000/svg" width="30.76" height="30.76" viewBox="0 0 30.76 30.76">
  <path id="snapchat" d="M15.38,0A15.38,15.38,0,1,0,30.76,15.38,15.382,15.382,0,0,0,15.38,0Zm9.211,20.346c-.111.258-.609.625-2.351.894-.143.022-.2.207-.283.6-.031.142-.062.281-.105.427a.233.233,0,0,1-.249.186h-.022a2.184,2.184,0,0,1-.39-.049,5.219,5.219,0,0,0-1.046-.111,4.648,4.648,0,0,0-.755.063,3.619,3.619,0,0,0-1.436.733,4.055,4.055,0,0,1-2.486.981c-.048,0-.095,0-.142,0-.03,0-.061,0-.092,0a4.053,4.053,0,0,1-2.484-.98,3.629,3.629,0,0,0-1.438-.734,4.642,4.642,0,0,0-.755-.063,5.174,5.174,0,0,0-1.047.118,2.29,2.29,0,0,1-.39.056.245.245,0,0,1-.271-.194c-.043-.148-.075-.291-.105-.43-.078-.356-.133-.575-.282-.6-1.742-.269-2.24-.636-2.351-.9a.335.335,0,0,1-.027-.111.2.2,0,0,1,.164-.2,5.772,5.772,0,0,0,3.928-3.293l0-.009a1.022,1.022,0,0,0,.1-.857c-.184-.433-.783-.623-1.18-.749-.1-.031-.189-.06-.262-.089-.792-.313-.857-.634-.826-.8a.748.748,0,0,1,.727-.474.509.509,0,0,1,.216.043,2.31,2.31,0,0,0,.954.251.786.786,0,0,0,.57-.182c-.01-.181-.022-.371-.034-.566a9.361,9.361,0,0,1,.222-3.736,4.843,4.843,0,0,1,4.5-2.9l.329,0h.044a4.851,4.851,0,0,1,4.5,2.9,9.372,9.372,0,0,1,.222,3.737l0,.055c-.011.176-.022.347-.031.511a.763.763,0,0,0,.52.181h0a2.393,2.393,0,0,0,.9-.25.673.673,0,0,1,.279-.055.858.858,0,0,1,.321.061l.006,0a.59.59,0,0,1,.449.481c0,.185-.138.464-.832.739-.072.028-.164.057-.262.088-.4.126-1,.316-1.18.749a1.019,1.019,0,0,0,.1.857l0,.01a5.769,5.769,0,0,0,3.928,3.293.2.2,0,0,1,.164.2.329.329,0,0,1-.027.112Zm0,0" fill="#fff"/>
</svg>
