<svg id="facebook" xmlns="http://www.w3.org/2000/svg" width="24.498" height="24.498" viewBox="0 0 24.498 24.498">
  <path id="Path_3" data-name="Path 3" d="M291.186,508.668q-.165.027-.331.049Q291.021,508.695,291.186,508.668Zm0,0" transform="translate(-276.952 -484.342)" fill="#6d3fd5"/>
  <path id="Path_4" data-name="Path 4" d="M299.5,507.793l-.158.028Zm0,0" transform="translate(-285.023 -483.512)" fill="#6d3fd5"/>
  <path id="Path_5" data-name="Path 5" d="M278,510.34q-.193.022-.388.038Q277.8,510.362,278,510.34Zm0,0" transform="translate(-264.342 -485.928)" fill="#6d3fd5"/>
  <path id="Path_6" data-name="Path 6" d="M286.632,509.738l-.186.023Zm0,0" transform="translate(-272.747 -485.357)" fill="#6d3fd5"/>
  <path id="Path_7" data-name="Path 7" d="M306.8,506.41l-.139.029Zm0,0" transform="translate(-291.997 -482.2)" fill="#6d3fd5"/>
  <path id="Path_8" data-name="Path 8" d="M324.6,502.113l-.112.031Zm0,0" transform="translate(-308.964 -478.124)" fill="#6d3fd5"/>
  <path id="Path_9" data-name="Path 9" d="M319.181,503.543l-.122.032Zm0,0" transform="translate(-303.798 -479.481)" fill="#6d3fd5"/>
  <path id="Path_10" data-name="Path 10" d="M312.2,505.254l-.13.029Zm0,0" transform="translate(-297.141 -481.104)" fill="#6d3fd5"/>
  <path id="Path_11" data-name="Path 11" d="M273.689,511.09l-.208.016Zm0,0" transform="translate(-260.403 -486.639)" fill="#6d3fd5"/>
  <path id="Path_12" data-name="Path 12" d="M24.5,12.249A12.249,12.249,0,1,0,12.249,24.5l.215,0V14.96H9.833V11.893h2.632V9.636A3.684,3.684,0,0,1,16.4,5.594a21.663,21.663,0,0,1,2.359.121V8.45h-1.61c-1.27,0-1.516.6-1.516,1.489v1.953h3.037l-.4,3.067H15.63v9.065A12.256,12.256,0,0,0,24.5,12.249Zm0,0" fill="#244d75"/>
  <path id="Path_13" data-name="Path 13" d="M265.3,511.43q-.206.013-.413.021Q265.1,511.444,265.3,511.43Zm0,0" transform="translate(-252.232 -486.962)" fill="#6d3fd5"/>
  <path id="Path_14" data-name="Path 14" d="M260.723,511.836l-.219.005Zm0,0" transform="translate(-248.048 -487.346)" fill="#6d3fd5"/>
</svg>
