<svg xmlns="http://www.w3.org/2000/svg" width="24.498" height="24.498" viewBox="0 0 24.498 24.498">
  <path id="twitter" d="M12.249,0A12.249,12.249,0,1,0,24.5,12.249,12.25,12.25,0,0,0,12.249,0Zm5.593,9.55q.008.181.008.363a7.945,7.945,0,0,1-8,8h0A7.958,7.958,0,0,1,5.541,16.65a5.718,5.718,0,0,0,.671.039,5.641,5.641,0,0,0,3.492-1.2,2.815,2.815,0,0,1-2.627-1.953,2.8,2.8,0,0,0,1.27-.048,2.812,2.812,0,0,1-2.256-2.756c0-.013,0-.024,0-.036a2.792,2.792,0,0,0,1.273.352,2.814,2.814,0,0,1-.87-3.753,7.982,7.982,0,0,0,5.8,2.938,2.813,2.813,0,0,1,4.791-2.564,5.639,5.639,0,0,0,1.785-.682A2.822,2.822,0,0,1,17.63,8.537a5.607,5.607,0,0,0,1.614-.443,5.714,5.714,0,0,1-1.4,1.456Zm0,0" fill="#1da1f2"/>
</svg>
