<svg xmlns="http://www.w3.org/2000/svg" width="24.498" height="24.498" viewBox="0 0 24.498 24.498">
  <path id="snapchat" d="M12.249,0A12.249,12.249,0,1,0,24.5,12.249,12.25,12.25,0,0,0,12.249,0Zm7.336,16.2c-.088.206-.485.5-1.872.712-.114.017-.158.165-.225.475-.025.113-.05.224-.084.34a.185.185,0,0,1-.2.148h-.017a1.74,1.74,0,0,1-.31-.039,4.156,4.156,0,0,0-.833-.088,3.7,3.7,0,0,0-.6.05,2.883,2.883,0,0,0-1.144.584,3.23,3.23,0,0,1-1.98.781c-.038,0-.075,0-.113,0s-.049,0-.074,0a3.228,3.228,0,0,1-1.979-.781A2.89,2.89,0,0,0,9.008,17.8a3.7,3.7,0,0,0-.6-.05,4.121,4.121,0,0,0-.834.094,1.824,1.824,0,0,1-.311.045.2.2,0,0,1-.216-.154c-.035-.118-.059-.232-.084-.342-.062-.284-.106-.458-.225-.477-1.387-.214-1.784-.507-1.873-.714a.267.267,0,0,1-.021-.089.156.156,0,0,1,.131-.163A4.6,4.6,0,0,0,8.1,13.329l0-.007a.814.814,0,0,0,.076-.682c-.146-.345-.624-.5-.94-.6-.077-.025-.15-.048-.208-.071-.63-.249-.683-.5-.658-.635a.6.6,0,0,1,.579-.377.4.4,0,0,1,.172.035,1.84,1.84,0,0,0,.76.2.626.626,0,0,0,.454-.145c-.008-.144-.018-.3-.027-.451a7.455,7.455,0,0,1,.177-2.976,3.857,3.857,0,0,1,3.581-2.31l.262,0h.035a3.864,3.864,0,0,1,3.588,2.311,7.464,7.464,0,0,1,.177,2.976l0,.044c-.009.14-.017.276-.024.407a.607.607,0,0,0,.414.144h0a1.906,1.906,0,0,0,.716-.2.536.536,0,0,1,.222-.044.683.683,0,0,1,.256.049l0,0a.47.47,0,0,1,.357.383c0,.148-.11.37-.663.588-.057.023-.131.046-.208.07-.316.1-.793.252-.94.6a.812.812,0,0,0,.076.682l0,.008a4.594,4.594,0,0,0,3.128,2.623.156.156,0,0,1,.131.163.262.262,0,0,1-.022.089Zm0,0" fill="#fffc00"/>
</svg>
