<svg id="instagram" xmlns="http://www.w3.org/2000/svg" width="24.498" height="24.498" viewBox="0 0 24.498 24.498">
  <path id="Path_15" data-name="Path 15" d="M212.049,209.524A2.524,2.524,0,1,1,209.524,207,2.524,2.524,0,0,1,212.049,209.524Zm0,0" transform="translate(-197.275 -197.275)" fill="#c13584"/>
  <path id="Path_16" data-name="Path 16" d="M147.6,137.231a2.508,2.508,0,0,0-1.437-1.437,4.19,4.19,0,0,0-1.406-.261c-.8-.036-1.038-.044-3.06-.044s-2.262.008-3.06.044a4.192,4.192,0,0,0-1.406.261,2.509,2.509,0,0,0-1.437,1.437,4.191,4.191,0,0,0-.261,1.406c-.036.8-.044,1.038-.044,3.06s.008,2.262.044,3.06a4.19,4.19,0,0,0,.261,1.406,2.508,2.508,0,0,0,1.437,1.437,4.186,4.186,0,0,0,1.406.261c.8.036,1.038.044,3.06.044s2.262-.008,3.06-.044a4.186,4.186,0,0,0,1.406-.261,2.508,2.508,0,0,0,1.437-1.437,4.193,4.193,0,0,0,.261-1.406c.036-.8.044-1.038.044-3.06s-.008-2.262-.044-3.06A4.184,4.184,0,0,0,147.6,137.231Zm-5.9,8.355a3.889,3.889,0,1,1,3.889-3.889A3.889,3.889,0,0,1,141.693,145.586Zm4.042-7.022a.909.909,0,1,1,.909-.909A.909.909,0,0,1,145.736,138.563Zm0,0" transform="translate(-129.444 -129.448)" fill="#c13584"/>
  <path id="Path_17" data-name="Path 17" d="M12.249,0A12.249,12.249,0,1,0,24.5,12.249,12.25,12.25,0,0,0,12.249,0ZM19.24,15.149a5.16,5.16,0,0,1-.327,1.707,3.6,3.6,0,0,1-2.057,2.057,5.164,5.164,0,0,1-1.707.327c-.75.034-.99.042-2.9.042s-2.15-.008-2.9-.042a5.164,5.164,0,0,1-1.707-.327,3.6,3.6,0,0,1-2.057-2.057,5.159,5.159,0,0,1-.327-1.707c-.035-.75-.043-.99-.043-2.9s.008-2.15.042-2.9a5.161,5.161,0,0,1,.327-1.707A3.6,3.6,0,0,1,7.642,5.585a5.165,5.165,0,0,1,1.707-.327c.75-.034.99-.042,2.9-.042s2.15.008,2.9.043a5.166,5.166,0,0,1,1.707.327,3.6,3.6,0,0,1,2.057,2.057,5.16,5.16,0,0,1,.327,1.707c.034.75.042.99.042,2.9S19.275,14.4,19.24,15.149Zm0,0" fill="#c13584"/>
</svg>
