<svg xmlns="http://www.w3.org/2000/svg" width="30.76" height="30.76" viewBox="0 0 30.76 30.76">
  <path id="twitter" d="M15.38,0A15.38,15.38,0,1,0,30.76,15.38,15.382,15.382,0,0,0,15.38,0ZM22.4,11.992q.01.227.01.456A9.976,9.976,0,0,1,12.368,22.492h0a9.992,9.992,0,0,1-5.411-1.586,7.18,7.18,0,0,0,.842.049,7.083,7.083,0,0,0,4.385-1.511,3.534,3.534,0,0,1-3.3-2.452,3.518,3.518,0,0,0,1.594-.061,3.531,3.531,0,0,1-2.832-3.46c0-.016,0-.03,0-.045a3.506,3.506,0,0,0,1.6.441A3.533,3.533,0,0,1,8.155,9.155a10.023,10.023,0,0,0,7.276,3.688,3.532,3.532,0,0,1,6.016-3.219,7.081,7.081,0,0,0,2.242-.857,3.544,3.544,0,0,1-1.552,1.953,7.041,7.041,0,0,0,2.027-.556A7.174,7.174,0,0,1,22.4,11.992Zm0,0" fill="#fff"/>
</svg>
